<svg width="39" height="69" viewBox="0 0 39 69" fill="none" xmlns="http://www.w3.org/2000/svg">
<path d="M37.269 30.7838L8.73316 2.29837C8.26447 1.82582 7.70685 1.45075 7.09248 1.19479C6.47811 0.938834 5.81913 0.807053 5.15357 0.807053C4.48801 0.807053 3.82904 0.938834 3.21466 1.19479C2.60029 1.45075 2.04268 1.82582 1.57399 2.29837C0.634974 3.24299 0.10791 4.52081 0.10791 5.85274C0.10791 7.18468 0.634974 8.4625 1.57399 9.40712L26.5302 34.6155L1.57399 59.5717C0.634974 60.5163 0.10791 61.7941 0.10791 63.1261C0.10791 64.458 0.634974 65.7358 1.57399 66.6805C2.04092 67.1568 2.59775 67.5358 3.2122 67.7954C3.82666 68.0551 4.48652 68.1902 5.15357 68.193C5.82062 68.1902 6.48049 68.0551 7.09494 67.7954C7.7094 67.5358 8.26622 67.1568 8.73316 66.6805L37.269 38.195C37.7807 37.7229 38.1892 37.1499 38.4685 36.5122C38.7479 35.8744 38.8921 35.1857 38.8921 34.4894C38.8921 33.7931 38.7479 33.1044 38.4685 32.4667C38.1892 31.8289 37.7807 31.2559 37.269 30.7838Z" fill="white"/>
</svg>
