<svg width="48" height="48" viewBox="0 0 48 48" fill="none" xmlns="http://www.w3.org/2000/svg">
<g clip-path="url(#clip0_108_8)">
<path fill-rule="evenodd" clip-rule="evenodd" d="M24 7.71465C22.7079 7.71468 21.4504 8.13182 20.4144 8.904C19.3785 9.67617 18.6195 10.7621 18.2503 12.0004H29.7497C29.3805 10.7621 28.6215 9.67617 27.5856 8.904C26.5496 8.13182 25.2921 7.71468 24 7.71465ZM16.1211 5.83579C14.4677 7.489 13.3762 9.62046 13.0011 11.9284C13.0099 12.0058 13.0145 12.0836 13.0149 12.1615V47.8392C13.0149 47.8941 13.0149 47.9455 13.008 48.0004H34.992C34.9877 47.9468 34.9854 47.893 34.9851 47.8392V12.1615C34.9856 12.0836 34.9902 12.0058 34.9989 11.9284C34.6699 9.90368 33.7885 8.00908 32.4518 6.45328C31.115 4.89749 29.3747 3.74087 27.4226 3.11086C25.4705 2.48085 23.3824 2.40189 21.3883 2.88269C19.3943 3.36349 17.5716 4.38538 16.1211 5.83579ZM39.264 12.0004C39.2683 12.054 39.2706 12.1077 39.2709 12.1615V47.8392C39.2709 47.8941 39.2709 47.9455 39.264 48.0004H39.4286C40.5542 48.0004 41.6688 47.7787 42.7087 47.3479C43.7487 46.9171 44.6936 46.2858 45.4895 45.4898C46.2854 44.6939 46.9168 43.749 47.3475 42.7091C47.7783 41.6691 48 40.5545 48 39.4289V20.5718C48 18.2985 47.0969 16.1183 45.4895 14.5109C43.882 12.9034 41.7019 12.0004 39.4286 12.0004H39.264ZM8.57143 12.0004H8.736C8.73173 12.054 8.72944 12.1077 8.72914 12.1615V47.8392C8.72914 47.8941 8.72914 47.9455 8.736 48.0004H8.57143C7.44581 48.0004 6.33122 47.7787 5.29129 47.3479C4.25135 46.9171 3.30644 46.2858 2.51051 45.4898C1.71458 44.6939 1.08322 43.749 0.652461 42.7091C0.221707 41.6691 0 40.5545 0 39.4289L0 20.5718C0 18.2985 0.903059 16.1183 2.51051 14.5109C4.11797 12.9034 6.29814 12.0004 8.57143 12.0004Z" fill="#6171A3"/>
</g>
<defs>
<clipPath id="clip0_108_8">
<rect width="48" height="48" fill="white"/>
</clipPath>
</defs>
</svg>
