<svg width="48" height="48" viewBox="0 0 48 48" fill="none" xmlns="http://www.w3.org/2000/svg">
<g clip-path="url(#clip0_109_58)">
<path d="M40.6149 7.38514C40.6149 5.42648 39.8368 3.54804 38.4518 2.16306C37.0668 0.778075 35.1884 0 33.2297 0C31.2711 0 29.3926 0.778075 28.0076 2.16306C26.6226 3.54804 25.8446 5.42648 25.8446 7.38514C25.8549 9.33943 26.6366 11.2114 28.0251 12.5897L12.5897 28.0251C11.2119 26.638 9.34025 25.8539 7.38514 25.8446C5.42648 25.8446 3.54804 26.6226 2.16306 28.0076C0.778075 29.3926 0 31.2711 0 33.2297C0 35.1884 0.778075 37.0668 2.16306 38.4518C3.54804 39.8368 5.42648 40.6149 7.38514 40.6149C7.38514 42.5735 8.16322 44.452 9.5482 45.8369C10.9332 47.2219 12.8116 48 14.7703 48C16.7289 48 18.6074 47.2219 19.9924 45.8369C21.3774 44.452 22.1554 42.5735 22.1554 40.6149C22.1461 38.6598 21.362 36.7881 19.9749 35.4103L35.4103 19.9749C36.7886 21.3634 38.6606 22.1451 40.6149 22.1554C42.5735 22.1554 44.452 21.3774 45.8369 19.9924C47.2219 18.6074 48 16.7289 48 14.7703C48 12.8116 47.2219 10.9332 45.8369 9.5482C44.452 8.16322 42.5735 7.38514 40.6149 7.38514Z" fill="#6171A3"/>
</g>
<defs>
<clipPath id="clip0_109_58">
<rect width="48" height="48" fill="white"/>
</clipPath>
</defs>
</svg>
