<svg width="69" height="68" viewBox="0 0 69 68" fill="none" xmlns="http://www.w3.org/2000/svg">
<path fill-rule="evenodd" clip-rule="evenodd" d="M56.3386 6.1285C56.3688 6.85865 56.3915 7.68859 56.4036 8.60469C57.3132 8.70597 58.1459 8.80877 58.8999 8.91005C63.2247 9.48602 66.5582 12.771 67.1793 17.1005C67.8094 21.4996 68.5 28.4475 68.5 37.7657C68.5 47.0839 67.8094 54.0317 67.1793 58.4308C66.5597 62.7604 63.2247 66.0454 58.8984 66.6228C54.0659 67.2668 46.0328 68 34.5 68C22.9672 68 14.9341 67.2668 10.1001 66.6228C5.77529 66.0454 2.44178 62.7619 1.82071 58.4308C1.19058 54.0317 0.5 47.0839 0.5 37.7657C0.5 28.4475 1.19058 21.4996 1.82071 17.1005C2.44027 12.771 5.77529 9.48602 10.1016 8.91005C10.932 8.79868 11.7637 8.69688 12.5964 8.60469C12.6085 7.68859 12.6327 6.85865 12.6614 6.1285C12.7838 3.08995 14.8646 0.278156 18.3251 0.0710507C19.0549 0.0256992 19.9072 0 20.9 0C21.8928 0 22.7436 0.0256992 23.4734 0.0710507C26.9339 0.279668 29.0162 3.08995 29.1386 6.1285C29.1567 6.57748 29.1718 7.06425 29.1839 7.58579C32.7271 7.51247 36.2714 7.51247 39.8146 7.58579C39.8282 7.06425 39.8448 6.57748 39.8614 6.1285C39.9838 3.08995 42.0646 0.278156 45.5266 0.0710507C46.2549 0.0256992 47.1072 0 48.1 0C49.0928 0 49.9436 0.0256992 50.6734 0.0710507C54.1339 0.279668 56.2162 3.08995 56.3386 6.1285ZM50.1823 33.7279C50.5453 33.2558 50.8117 32.7168 50.9665 32.1417C51.1212 31.5666 51.1612 30.9667 51.0841 30.3761C51.0071 29.7856 50.8145 29.216 50.5175 28.6998C50.2204 28.1837 49.8246 27.7312 49.3527 27.3681C48.8808 27.005 48.3421 26.7385 47.7672 26.5837C47.1923 26.4289 46.5926 26.3888 46.0023 26.4659C45.412 26.543 44.8426 26.7356 44.3267 27.0328C43.8108 27.33 43.3584 27.726 42.9955 28.198L32.2364 42.1905L25.6585 35.4361C24.8195 34.5745 23.6727 34.0816 22.4704 34.0659C21.2681 34.0502 20.1089 34.5129 19.2476 35.3522C18.3863 36.1916 17.8937 37.3388 17.8779 38.5416C17.8622 39.7443 18.3247 40.9041 19.1637 41.7657L29.394 52.2691C29.8475 52.7345 30.3957 53.0969 31.0015 53.3319C31.6073 53.5668 32.2564 53.6687 32.905 53.6307C33.5536 53.5927 34.1865 53.4157 34.7607 53.1117C35.3349 52.8076 35.8371 52.3836 36.2332 51.8685L50.1823 33.7279Z" fill="#6171A3"/>
</svg>
