<svg xmlns="http://www.w3.org/2000/svg" enable-background="new 0 0 90.559 72.251" viewBox="0 0 90.559 72.251" id="cat"><path d="M0.014,2.764c1.776,16.728,10.694,25.72,13.955,28.485l2.28,23.252c0,0,2.125,17.75,6.853,17.75
		c2.779,0,3.68-9.51,3.951-17.345c8.503,0.099,20.25-0.282,28.531-2.597c0.783,8.253,3.007,18.478,5.164,19.607
		c3.358,1.759,3.168-20.166,3.815-26.896c0.002-0.015,0-0.026,0.001-0.041c0.265-2.963-0.265-6.894-1.045-10.685l5.222,9.357
		l11.873-7.587l3.88,0.517l2.222-0.48l3.785-4.993l0.059-1.041l-3.291-5.332l-1.411-2.989l-4.664-2.321
		c-0.034-1.958-0.206-4.16-0.806-4.375c-0.399-0.145-1.141,0.517-1.922,1.413c-0.051-1.842-0.239-3.758-0.799-3.958
		c-0.683-0.246-2.365,1.859-3.537,3.483l-9.379,4.733l-4.608,1.057c-0.003-0.007-0.009-0.025-0.009-0.025
		s-26.859-5.786-43.537,5.142c-0.075-0.068-0.136-0.119-0.217-0.194c-1.061-0.987-2.521-2.517-4.047-4.617
		C9.277,17.874,5.957,11.405,4.985,2.238C4.84,0.865,3.61-0.131,2.237,0.014C0.865,0.16-0.131,1.391,0.014,2.764z M84.118,25.308
		c0.869-0.144,1.694,0.445,1.834,1.318c0.145,0.873-0.445,1.696-1.318,1.838c-0.873,0.146-1.696-0.447-1.84-1.318
		C82.652,26.274,83.244,25.452,84.118,25.308z"></path></svg>