<svg xmlns="http://www.w3.org/2000/svg" enable-background="new 0 0 64 64" viewBox="0 0 64 64" id="cat"><path d="M61.393,29.979l-2.84-2.84c-0.999-0.999-1.799-2.245-2.376-3.701c-0.173-0.439-0.372-0.895-0.614-1.407
		c1.93-4.775,2.323-10.127,1.185-15.141c-0.289-1.286-0.666-2.529-1.122-3.695c-0.262-0.672-0.801-1.196-1.479-1.438
		c-0.682-0.243-1.434-0.179-2.065,0.176L40.493,8.45c-0.376-0.13-0.756-0.25-1.139-0.362c-1.033-0.302-1.83-1.114-2.082-2.12
		c-0.113-0.454-0.428-0.803-0.862-0.957c-0.82-0.291-2.206,0.23-4.125,1.551c-2.282-3.544-3.33-3.521-3.696-3.528
		c-0.486,0.005-0.909,0.26-1.159,0.698l-1.853,3.242c-0.362,0.635-0.931,1.103-1.6,1.318c-0.157,0.051-0.314,0.103-0.471,0.157
		L11.919,1.932c-0.632-0.356-1.385-0.419-2.064-0.176C9.177,1.998,8.637,2.522,8.375,3.194C7.919,4.362,7.542,5.605,7.253,6.889
		C6.115,11.903,6.507,17.256,8.438,22.03c-0.241,0.51-0.439,0.964-0.614,1.406c-0.577,1.457-1.376,2.702-2.376,3.702l-2.839,2.84
		c-0.424,0.423-0.594,0.965-0.479,1.524c0.226,1.104,1.693,2.079,2.989,2.741c-2.017,1.81-1.819,2.682-1.747,3
		c0.061,0.268,0.303,0.91,1.235,1.097c1.554,0.311,2.849,1.288,3.552,2.68c1.391,2.755,4.049,6.568,8.842,9.349v4.631
		c0,0.267,0.106,0.521,0.295,0.709c0.249,0.247,2.58,2.352,9.783,3.057C27.45,61.158,29.506,63,32,63s4.55-1.842,4.922-4.233
		c7.203-0.705,9.534-2.81,9.783-3.057C46.894,55.522,47,55.268,47,55.001V50.37c4.793-2.781,7.451-6.594,8.842-9.348
		c0.703-1.393,1.998-2.37,3.553-2.681c0.933-0.187,1.175-0.829,1.235-1.097c0.072-0.318,0.27-1.19-1.747-3
		c1.295-0.662,2.762-1.638,2.988-2.741C61.985,30.943,61.816,30.402,61.393,29.979z M49.362,13.685
		c1.403-2.089,3.434-3.889,5.68-5.099c0.627,3.671,0.393,7.498-0.748,11.063C52.962,17.428,51.31,15.431,49.362,13.685z
		 M9.706,19.648c-1.14-3.564-1.374-7.393-0.748-11.063c2.271,1.236,4.224,2.954,5.68,5.099C12.691,15.43,11.039,17.428,9.706,19.648
		z M19,51.396c2.736,1.273,6.143,2.193,10.144,2.499c-0.99,0.676-1.662,1.731-1.98,2.876C22.092,56.26,19.761,55.014,19,54.51
		V51.396z M33,60.816V59c0-0.553-0.447-1-1-1s-1,0.447-1,1v1.816c-1.161-0.414-2-1.514-2-2.816c0.029-0.63,0.204-1.241,0.553-1.725
		C30.112,55.495,31.033,54.997,32,55c0.967-0.003,1.888,0.495,2.447,1.275C34.796,56.759,34.971,57.37,35,58
		C35,59.302,34.161,60.402,33,60.816z M45,54.508c-0.772,0.513-3.104,1.753-8.163,2.263c-0.318-1.145-0.991-2.2-1.98-2.876
		c4-0.306,7.408-1.226,10.144-2.499V54.508z M56.628,33.071c-0.335,0.135-0.572,0.439-0.619,0.798s0.103,0.714,0.392,0.931
		c0.752,0.564,1.512,1.257,1.938,1.745c-1.864,0.558-3.402,1.833-4.282,3.575c-1.298,2.57-3.818,6.141-8.413,8.697
		C41.659,51.014,36.672,52.022,32,52c-4.674,0.023-9.663-0.987-13.649-3.185c-4.592-2.556-7.111-6.126-8.408-8.696
		c-0.878-1.738-2.412-3.012-4.282-3.573C6.088,36.058,6.847,35.365,7.6,34.8c0.289-0.217,0.438-0.573,0.391-0.931
		c-0.047-0.358-0.284-0.663-0.62-0.798c-1.377-0.552-2.774-1.369-3.187-1.842l2.677-2.677c1.194-1.194,2.144-2.668,2.821-4.38
		c0.201-0.508,0.439-1.04,0.748-1.673c1.483-3.033,3.556-5.677,6.16-7.861c0.377-0.316,0.468-0.86,0.214-1.282
		c-1.732-2.886-4.373-5.28-7.4-6.793c0.236-0.912,0.505-1.803,0.833-2.642c0.185-0.322,0.351-0.379,0.7-0.246l11.984,6.741
		c0.255,0.143,0.562,0.169,0.835,0.067c0.275-0.101,0.553-0.196,0.833-0.287c1.146-0.369,2.112-1.161,2.723-2.229l1.512-2.645
		c0.584,0.592,1.532,1.883,2.317,3.192c0.146,0.243,0.388,0.412,0.665,0.466C32.086,9.036,32.373,8.97,32.6,8.8
		c1.059-0.793,2.262-1.518,2.914-1.777c0.552,1.424,1.765,2.542,3.28,2.984c0.489,0.143,0.973,0.301,1.448,0.476
		c0.274,0.102,0.58,0.076,0.835-0.067l11.984-6.741c0.351-0.132,0.515-0.076,0.7,0.246c0.328,0.838,0.597,1.73,0.833,2.642
		c-0.36,0.181-0.752,0.392-1.104,0.608c-2.568,1.494-4.757,3.645-6.295,6.183c-0.256,0.422-0.165,0.967,0.213,1.284
		c2.605,2.185,4.679,4.83,6.161,7.862c0,0.001,0.001,0.001,0.001,0.002c0.311,0.637,0.548,1.168,0.747,1.671
		c0.679,1.713,1.628,3.187,2.821,4.38l2.676,2.676C59.402,31.702,58.005,32.52,56.628,33.071z"></path><path d="M43.853 33.012c.48 0 .961-.059 1.431-.18 1.609-.413 3.129-1.558 3.966-2.988.653-1.118.843-2.293.547-3.396-.296-1.104-1.047-2.026-2.173-2.668-1.438-.821-3.328-1.052-4.927-.605-2.397.668-4.2 2.885-4.487 5.517-.061.563.097 1.149.432 1.608C39.899 32.017 41.873 33.012 43.853 33.012zM42.279 25.528C42.096 26.011 42 26.538 42 27c0 1.258.695 3 2 3s2-1.742 2-3c0-.61-.167-1.331-.484-1.914.398.095.779.238 1.116.431.454.259 1.036.72 1.231 1.448.194.729-.078 1.418-.342 1.869-.568.972-1.642 1.78-2.736 2.061-1.628.421-3.447-.297-4.531-1.775-.043-.06-.065-.143-.058-.214C40.355 27.463 41.154 26.215 42.279 25.528zM18.716 32.832c.471.121.951.18 1.432.18 1.979 0 3.954-.995 5.213-2.715.334-.457.491-1.043.431-1.608-.287-2.63-2.09-4.847-4.486-5.515-1.602-.447-3.489-.215-4.929.605-1.125.642-1.875 1.564-2.171 2.668s-.107 2.278.547 3.396C15.588 31.274 17.107 32.419 18.716 32.832zM16.136 26.965c.195-.729.777-1.189 1.231-1.448.337-.193.718-.336 1.117-.431C18.167 25.669 18 26.39 18 27c0 1.258.695 3 2 3s2-1.742 2-3c0-.462-.096-.989-.279-1.472 1.125.687 1.925 1.935 2.082 3.375.008.073-.015.156-.057.214-1.086 1.481-2.907 2.198-4.533 1.777-1.094-.28-2.167-1.089-2.735-2.061C16.214 28.383 15.941 27.693 16.136 26.965zM49.467 39.116c-1.048-.555-2.163-.926-3.313-1.104-1.04-.161-2.007-.145-2.895-.033-.581-.899-1.47-1.589-2.586-1.917-.003-.001-.081-.023-.085-.023-1.143-.323-2.199-.366-3.098-.287.008-.29-.029-.582-.136-.862-.252-.654-.786-1.142-1.466-1.338-2.531-.731-5.25-.732-7.789.005-.673.194-1.202.681-1.453 1.333-.108.282-.145.575-.137.865-.876-.075-1.992-.049-3.18.308-1.116.328-2.005 1.018-2.586 1.917-.888-.112-1.855-.128-2.895.033-1.15.179-2.266.55-3.314 1.104-.488.258-.675.862-.417 1.351.258.488.863.677 1.352.417.852-.45 1.755-.751 2.686-.896.669-.104 1.299-.112 1.894-.068-.065.417-.059.863.004 1.276-1.696.475-2.941 1.358-3.721 2.061-.41.37-.443 1.003-.073 1.413.371.411 1.004.441 1.413.073.641-.578 1.7-1.293 3.119-1.651.562.83 1.395 1.475 2.432 1.811.695.224 1.412.33 2.133.33 2.482 0 4.976-1.283 6.647-3.431 1.667 2.139 4.173 3.432 6.656 3.432 1.719.028 3.629-.684 4.555-2.142 1.419.358 2.478 1.073 3.119 1.651.409.368 1.041.338 1.413-.073.369-.41.337-1.043-.073-1.413-.78-.702-2.025-1.586-3.721-2.061.062-.413.068-.858.004-1.275.595-.044 1.225-.036 1.894.067.931.145 1.834.445 2.687.896.488.26 1.094.071 1.351-.417C50.143 39.979 49.955 39.374 49.467 39.116zM28.512 35.606c.018-.046.057-.105.143-.13C29.744 35.16 30.87 35 32 35c1.127 0 2.248.159 3.332.473.095.027.136.088.154.135.019.048.029.124-.025.212-.818 1.29-1.978 2.361-3.357 3.027-.068.049-.138.051-.206.001-1.376-.675-2.565-1.732-3.366-3.042C28.482 35.727 28.493 35.654 28.512 35.606zM23.835 43c-1.373-.445-1.848-1.606-1.835-2.545.014-.932.517-2.07 1.897-2.476.651-.196 1.283-.262 1.835-.262.76 0 1.369.124 1.672.199 1.054.85 1.939 1.87 3.158 2.5C28.928 42.66 26.185 43.753 23.835 43zM40.152 43.004l-.117.036c-2.321.677-5.001-.433-6.599-2.622 1.209-.625 2.118-1.659 3.156-2.498.835-.211 2.069-.349 3.487.053.002.001.019.005.029.009 1.374.403 1.877 1.542 1.891 2.474C42.013 41.394 41.538 42.555 40.152 43.004z"></path></svg>