<svg width="69" height="62" viewBox="0 0 69 62" fill="none" xmlns="http://www.w3.org/2000/svg">
<path fill-rule="evenodd" clip-rule="evenodd" d="M40.1692 6.40309C41.0447 4.57001 42.3913 3.02812 44.058 1.95028C45.7247 0.872447 47.6456 0.301268 49.6054 0.300781H53.1707C53.4932 0.300781 53.8025 0.434723 54.0305 0.673141C54.2586 0.911558 54.3867 1.23492 54.3867 1.57209V12.8614L67.5584 17.4483C67.7995 17.5334 68.009 17.6955 68.1573 17.9117C68.3057 18.1279 68.3854 18.3874 68.3852 18.6535V23.5353C68.3839 26.4589 67.2725 29.2623 65.2952 31.3295C63.3179 33.3968 60.6364 34.5588 57.8401 34.5601H49.7172V34.5703C44.7365 33.4668 41.0399 30.5326 38.3647 27.0746C36.5402 24.6952 35.0888 22.0278 34.0649 19.1722L40.1741 6.40309H40.1692ZM27.8439 19.8231H20.0517C16.0875 19.8227 12.2414 18.4112 9.14668 15.821L2.59488 10.3391C2.41576 10.1895 2.19985 10.096 1.97206 10.0692C1.74427 10.0424 1.51387 10.0834 1.30744 10.1876C1.10101 10.2918 0.926948 10.4549 0.805335 10.658C0.683721 10.8612 0.619508 11.0961 0.620099 11.3358V52.806C0.58215 53.9588 0.766556 55.1078 1.16233 56.1845C1.5581 57.2612 2.15713 58.2436 2.92374 59.0731C3.69035 59.9027 4.60883 60.5624 5.62447 61.0129C6.6401 61.4635 7.7321 61.6957 8.83538 61.6957C9.93867 61.6957 11.0307 61.4635 12.0463 61.0129C13.0619 60.5624 13.9804 59.9027 14.747 59.0731C15.5136 58.2436 16.1127 57.2612 16.5084 56.1845C16.9042 55.1078 17.0886 53.9588 17.0507 52.806V50.3651C17.052 49.4084 17.4164 48.4914 18.0639 47.8154C18.7114 47.1393 19.589 46.7597 20.5041 46.7597H29.8381C30.2916 46.7597 30.7407 46.853 31.1597 47.0345C31.5787 47.2159 31.9594 47.4819 32.28 47.8172C32.6007 48.1524 32.8551 48.5504 33.0287 48.9885C33.2022 49.4265 33.2915 49.896 33.2915 50.3702V52.8111C33.2536 53.9639 33.438 55.1129 33.8338 56.1896C34.2295 57.2663 34.8286 58.2487 35.5952 59.0782C36.3618 59.9077 37.2803 60.5675 38.2959 61.018C39.3115 61.4686 40.4035 61.7008 41.5068 61.7008C42.6101 61.7008 43.7021 61.4686 44.7177 61.018C45.7334 60.5675 46.6518 59.9077 47.4185 59.0782C48.1851 58.2487 48.7841 57.2663 49.1799 56.1896C49.5756 55.1129 49.76 53.9639 49.7221 52.8111V41.0286C42.4748 39.8132 37.2216 35.6891 33.6369 31.0716C31.0662 27.7216 29.1044 23.9074 27.8487 19.818L27.8439 19.8231Z" fill="#6171A3"/>
</svg>
