<svg xmlns="http://www.w3.org/2000/svg" viewBox="0 0 64 64" id="dog"><path fill="#222" d="M41.891 30.833a.682.682 0 1 1 .681-.682.683.683 0 0 1-.681.682Zm7.2-24.363-6.315 3.519a1.006 1.006 0 0 1-.735.095c-.042-.009-4.42-1.078-7.776 1.145-2.038 1.348-3.326 3.659-3.828 6.869-.745 4.746-.944 6.254-1.04 6.979-.1.78-.109.814-.46 2.577-.786 3.962-.046 5.6.464 6.219a2.007 2.007 0 0 0 1.652.727c2.01 0 3.815-.406 3.815-5.307 0-5.429-.113-11.271-.114-11.33a1 1 0 0 1 .98-1.019h.02a1 1 0 0 1 1 .98c0 .053.091 4.714.11 9.585l3.316.953c.755-5.107 4.137-7.929 6.693-10.062a13.417 13.417 0 0 0 2.832-2.809c2.001-3.308 1.795-6.374-.617-9.121Zm-1.747 47.551a1 1 0 0 1-.8-.567c-.262-.554-6.4-13.67-6.517-22.635 0-.109.008-.21.008-.318l-3.174-.912c-.071 4.84-1.868 7.011-5.808 7.011-.139 0-.266-.028-.4-.04a9.735 9.735 0 0 1-1.261 3.1c-.214.3-4.054 5.6-5.751 7.4a7.989 7.989 0 0 0-1.577 8.048c.06.138.128.278.206.42H18.9a3.8 3.8 0 0 1-3.645-2.267c-.748-1.757-.145-3.9 1.614-5.728a1 1 0 0 0-1.441-1.387c-2.333 2.428-3.086 5.38-2.014 7.9A5.815 5.815 0 0 0 18.9 57.53h20.781a3.856 3.856 0 0 0-.532-2.724 1.786 1.786 0 0 0-1.446-.551h-4.931a1 1 0 0 1-.461-1.886 5.049 5.049 0 0 0 2.572-3.3 4.111 4.111 0 0 0-2.367-4.857 1 1 0 1 1 .744-1.857 6.1 6.1 0 0 1 3.593 7.061 6.983 6.983 0 0 1-1.345 2.842h2.2a3.76 3.76 0 0 1 2.966 1.251 5.5 5.5 0 0 1 1.01 4.024H49.5a3.979 3.979 0 0 0-.373-2.6 2.287 2.287 0 0 0-1.783-.912Z"></path></svg>