<svg width="48" height="49" viewBox="0 0 48 49" fill="none" xmlns="http://www.w3.org/2000/svg">
<path fill-rule="evenodd" clip-rule="evenodd" d="M16.9135 4.2168C15.2198 4.2168 13.8072 5.12194 12.8781 6.34594C11.912 7.66318 11.4006 9.25885 11.4209 10.8922C11.4209 12.6065 11.9455 14.2179 12.8781 15.4419C13.8072 16.6659 15.2198 17.5677 16.9135 17.5677C18.6038 17.5677 20.0164 16.6659 20.9489 15.4419C21.9148 14.1233 22.4261 12.5266 22.4061 10.8922C22.4061 9.18137 21.8781 7.56651 20.9489 6.34594C20.0164 5.12194 18.6038 4.2168 16.9135 4.2168ZM31.0872 4.2168C29.3969 4.2168 27.9844 5.12194 27.0518 6.34594C26.0858 7.66318 25.5743 9.25885 25.5946 10.8922C25.5946 12.6065 26.1226 14.2179 27.0518 15.4419C27.9844 16.6659 29.3969 17.5677 31.0872 17.5677C32.7809 17.5677 34.1935 16.6659 35.1261 15.4419C36.0919 14.1233 36.6033 12.5266 36.5832 10.8922C36.5832 9.18137 36.0552 7.56651 35.1261 6.34594C34.1935 5.12194 32.7809 4.2168 31.0872 4.2168ZM41.3249 16.8168C37.8484 16.8168 35.6404 20.1837 35.6404 23.4922C35.6404 26.8042 37.8484 30.1711 41.3249 30.1711C44.8015 30.1711 47.0095 26.8042 47.0095 23.4922C47.0095 20.1837 44.8015 16.8168 41.3249 16.8168ZM6.67578 16.8168C3.19921 16.8168 0.991211 20.1802 0.991211 23.4922C0.991211 26.8042 3.19921 30.1711 6.67578 30.1711C10.1524 30.1711 12.3604 26.8042 12.3604 23.4922C12.3604 20.1837 10.1524 16.8168 6.67578 16.8168ZM24.0004 23.1597C20.0026 23.1597 17.0472 25.3025 15.1581 27.9597C13.2964 30.5722 12.3604 33.8157 12.3604 36.4522C12.3604 39.5379 14.2152 41.6808 16.4781 42.9665C18.7066 44.2282 21.5009 44.7837 24.0004 44.7837C26.5032 44.7837 29.2906 44.2282 31.5192 42.9665C33.7821 41.6808 35.6404 39.5379 35.6404 36.4522C35.6404 33.8157 34.7044 30.5722 32.8392 27.9562C30.9535 25.3025 27.9981 23.1562 24.0004 23.1562V23.1597Z" fill="#6171A3"/>
</svg>
