<svg width="48" height="48" viewBox="0 0 48 48" fill="none" xmlns="http://www.w3.org/2000/svg">
<path fill-rule="evenodd" clip-rule="evenodd" d="M8 23.38H9.1V33.942V39.522H17.1V34H31.112V39.52H39.112V34H39.132V22.634H43.55L46.62 14.82L38.15 11.83V6H36.09C34.9134 6.00013 33.7628 6.3462 32.7813 6.99518C31.7998 7.64416 31.0308 8.56738 30.57 9.65L26.424 19.38H8C7.46957 19.38 6.96086 19.1693 6.58579 18.7942C6.21071 18.4191 6 17.9104 6 17.38V17H2V17.378C2 18.9693 2.63214 20.4954 3.75736 21.6206C4.88258 22.7459 6.4087 23.38 8 23.38Z" fill="#6171A3"/>
</svg>
