<svg xmlns="http://www.w3.org/2000/svg" enable-background="new 0 0 50 50" viewBox="0 0 50 50" id="pet-coaching"><circle cx="16.628" cy="9.036" r="3.473"></circle><path d="M47.2267,23.615c0-1.485-1.1723-1.6413-1.1723-1.6413l0.2735-1.9147l-1.016,1.7194V20.059
		c-1.016,0.9378-1.0942,2.032-1.0942,2.032c-0.9487,0.6038-1.8745,2.7266-2.2985,3.8085l-14.4319-3.7897
		c-0.1144-0.3574-0.3377-0.6824-0.6724-0.9091l-9.3862-6.3575c-0.3196-0.3621-0.7137-0.6675-1.1838-0.8768
		c-0.8632-0.3849-1.8-0.3853-2.6224-0.0793L2.6791,14.2462c-0.9581,0.0311-1.71,0.8338-1.6783,1.7925
		c0.0305,0.9389,0.8015,1.6794,1.7343,1.6794c0.0192,0,0.0384-0.0005,0.0582-0.0012l8.0995-0.2657L8.0531,25.831
		c-0.4486,1.0077-0.3647,2.1081,0.1093,3.0153l0.9133,4.3768L7.966,40.437c-0.1459,0.948,0.5042,1.8344,1.4521,1.9802
		c0.0894,0.0142,0.1781,0.0203,0.2662,0.0203c0.8423,0,1.5822-0.6138,1.7139-1.4725c1.448-9.412,1.3504-7.1419,0.6785-10.3612
		c0.2711-0.0688,0.531-0.1713,0.778-0.3027l1.6649,3.16v6.5165c0,0.9592,0.7773,1.7365,1.7366,1.7365
		c0.9592,0,1.7365-0.7773,1.7365-1.7365c0-9.2986,0.752-5.9484-2.9004-12.8809l2.6134-7.8713l7.1613,4.8505
		c0.9302,0.6306,2.2687,0.2362,2.6264-0.9308l14.069,3.6944c-1.3579,2.571-8.9012,3.1298-10.9437,3.3797
		c-2.4619-1.9148-0.6252,0.9769-0.6252,0.9769c-1.4306,3.1365-0.6086,4.2138-2.4619,7.0339
		c-1.1332,0.8597-0.7425,1.993-0.7425,1.993l-0.7815,3.0089c-0.1172,1.3677,1.0941,1.1992,1.0941,1.1992
		c2.1884-0.0513-0.0391-1.5118-0.0391-1.5118l0.0725-0.2469c0.5159-1.7579,1.478-3.3411,2.7393-4.6698
		c2.2329-2.3525,2.1649-3.7124,3.8394-4.1004c0.7675-0.1778,1.5621,0.0739,2.1837,0.558c1.6391,1.2767,4.9984,1.3184,4.9984,1.3184
		l0.2736,4.3272c-0.3908,5.1973,1.1723,4.2594,1.1723,4.2594c1.2505-0.2345,0.6252-1.1332,0.6252-1.1332
		c-0.7425,0.5471-0.9769-0.4689-0.9769-0.4689l1.016-6.0179c2.5009-3.7905,1.9148-6.1742,1.9148-6.1742
		c-0.508-3.0089,0.7816-5.0018,0.7816-5.0018l2.6572-0.1563l0.4299-0.1172C49.7276,24.7091,47.2267,23.615,47.2267,23.615z"></path></svg>