<svg width="50" height="50" viewBox="0 0 50 50" fill="none" xmlns="http://www.w3.org/2000/svg">
<path d="M11.8561 12.6887C13.688 12.6887 15.1731 11.2036 15.1731 9.37169C15.1731 7.53976 13.688 6.05469 11.8561 6.05469C10.0241 6.05469 8.53906 7.53976 8.53906 9.37169C8.53906 11.2036 10.0241 12.6887 11.8561 12.6887Z" fill="white"/>
<path d="M48.7169 29.5459L47.8589 28.641C47.8589 28.641 47.5354 25.6029 45.9413 26.264C45.9413 26.264 45.0036 25.4341 44.3003 26.1092C44.3003 26.1092 43.0438 25.9123 42.9922 27.4454C42.5342 27.8186 42.0522 28.1028 41.5114 28.3651L26.5625 18.597C27.428 18.1108 27.7826 17.0349 27.3453 16.1281C26.8905 15.1847 25.7564 14.7891 24.8147 15.2448C20.6222 17.268 16.4284 15.8268 14.5044 14.9251C13.4549 13.6857 11.8008 13.4053 10.4641 14.0375C5.41026 14.7439 1.51616 20.3492 1.33056 20.6206C0.74016 21.4849 0.96186 22.6643 1.82616 23.2547C2.69006 23.8449 3.87036 23.6232 4.46036 22.7591C5.04326 21.9065 6.50106 20.1638 8.23126 18.9771C7.51806 26.7521 7.40246 26.7405 7.64606 27.6432C7.61726 27.9295 7.22806 32.6199 7.20226 32.9293L2.62616 40.6689C2.09356 41.5703 2.39196 42.7326 3.29296 43.2652C4.19526 43.7982 5.35656 43.5002 5.88916 42.5984C11.9435 32.3584 10.8206 35.156 11.2385 30.1407C11.4979 30.1171 11.7476 30.0612 11.9895 29.9813L15.0207 33.9138L12.8029 41.5174C12.5096 42.5223 13.0866 43.5746 14.0916 43.8674C15.0921 44.1602 16.1474 43.5871 16.4416 42.5788L18.9291 34.0502C19.0985 33.469 18.9804 32.842 18.6108 32.3622L14.3551 26.8415L15.0695 19.2223C17.7089 20.0829 21.4613 20.6464 25.4191 19.1065L40.3092 28.8362C34.4483 30.5584 31.6485 27.7888 30.0059 30.2287C29.9851 30.2368 29.9675 30.2433 29.9451 30.2522C29.7104 30.3443 29.3805 30.484 28.9947 30.6746C27.9549 31.1971 24.7343 34.1259 22.4707 31.3349C24.5391 34.5149 28.438 31.7104 29.4392 31.3543C28.6123 34.2976 31.1917 36.6097 29.1331 39.0115C28.3733 39.8749 29.1708 40.7589 29.4566 41.7589L29.9817 43.5359L30.3943 43.2405C29.9272 40.2265 29.7603 40.2307 31.0975 38.0456C30.9662 38.3269 30.413 39.6397 31.5383 39.9023L33.7044 41.1635L34.4967 41.0135C33.0315 39.7192 32.1279 39.2128 32.5182 38.1394C33.4619 35.5144 33.2771 35.4667 34.7593 35.6733C34.7593 35.6733 38.2756 37.2908 39.6822 36.6766C38.9405 37.511 39.2262 38.1263 38.9414 39.5366C38.8335 40.0851 38.8335 40.7791 39.2743 41.3651L40.6199 43.9437C40.6199 43.9437 42.4344 43.6811 40.9997 43.4186L40.5777 42.1058C40.2026 40.9524 40.1792 39.7194 40.5027 38.552L42.4063 39.0537L41.3513 40.9853V41.8339C41.3513 41.8339 44.6098 38.2941 42.7485 38.1769C42.118 38.1409 41.5655 37.9732 40.9716 37.7925C44.1499 34.0177 43.2839 33.4459 44.2535 31.5521V30.3471L45.9226 31.5802L46.218 31.402C46.218 31.402 46.5087 31.463 46.218 32.6023C46.218 32.6023 46.5697 33.179 46.7525 32.4382C46.7525 32.4382 47.1042 30.8254 46.2086 30.8676L45.6413 30.094L45.6976 29.8033C45.6976 29.8033 46.5368 29.9393 46.8228 30.4737C46.8228 30.4737 47.934 31.4302 48.5107 30.4269C48.5107 30.4269 49.4576 29.8787 48.7169 29.5459ZM46.0726 27.3095C46.0726 26.8694 46.7289 26.8694 46.7289 27.3095C46.729 27.7428 46.0726 27.7446 46.0726 27.3095Z" fill="white"/>
</svg>
