<svg width="50" height="50" viewBox="0 0 50 50" fill="none" xmlns="http://www.w3.org/2000/svg">
<path d="M16.6293 12.5085C18.5473 12.5085 20.1023 10.9536 20.1023 9.0355C20.1023 7.11742 18.5473 5.5625 16.6293 5.5625C14.7112 5.5625 13.1562 7.11742 13.1562 9.0355C13.1562 10.9536 14.7112 12.5085 16.6293 12.5085Z" fill="white"/>
<path d="M47.2269 23.6162C47.2269 22.1312 46.0546 21.9749 46.0546 21.9749L46.3281 20.0602L45.3121 21.7796V20.0602C44.2961 20.998 44.2179 22.0922 44.2179 22.0922C43.2692 22.696 42.3434 24.8188 41.9194 25.9007L27.4875 22.111C27.3731 21.7536 27.1498 21.4286 26.8151 21.2019L17.4289 14.8444C17.1093 14.4823 16.7152 14.1769 16.2451 13.9676C15.3819 13.5827 14.4451 13.5823 13.6227 13.8883L2.67927 14.2474C1.72117 14.2785 0.969267 15.0812 1.00097 16.0399C1.03147 16.9788 1.80247 17.7193 2.73527 17.7193C2.75447 17.7193 2.77367 17.7188 2.79347 17.7181L10.893 17.4524L8.05327 25.8322C7.60467 26.8399 7.68857 27.9403 8.16257 28.8475L9.07587 33.2243L7.96617 40.4382C7.82027 41.3862 8.47037 42.2726 9.41827 42.4184C9.50767 42.4326 9.59637 42.4387 9.68447 42.4387C10.5268 42.4387 11.2667 41.8249 11.3984 40.9662C12.8464 31.5542 12.7488 33.8243 12.0769 30.605C12.348 30.5362 12.6079 30.4337 12.8549 30.3023L14.5198 33.4623V39.9788C14.5198 40.938 15.2971 41.7153 16.2564 41.7153C17.2156 41.7153 17.9929 40.938 17.9929 39.9788C17.9929 30.6802 18.7449 34.0304 15.0925 27.0979L17.7059 19.2266L24.8672 24.0771C25.7974 24.7077 27.1359 24.3133 27.4936 23.1463L41.5626 26.8407C40.2047 29.4117 32.6614 29.9705 30.6189 30.2204C28.157 28.3056 29.9937 31.1973 29.9937 31.1973C28.5631 34.3338 29.3851 35.4111 27.5318 38.2312C26.3986 39.0909 26.7893 40.2242 26.7893 40.2242L26.0078 43.2331C25.8906 44.6008 27.1019 44.4323 27.1019 44.4323C29.2903 44.381 27.0628 42.9205 27.0628 42.9205L27.1353 42.6736C27.6512 40.9157 28.6133 39.3325 29.8746 38.0038C32.1075 35.6513 32.0395 34.2914 33.714 33.9034C34.4815 33.7256 35.2761 33.9773 35.8977 34.4614C37.5368 35.7381 40.8961 35.7798 40.8961 35.7798L41.1697 40.107C40.7789 45.3043 42.342 44.3664 42.342 44.3664C43.5925 44.1319 42.9672 43.2332 42.9672 43.2332C42.2247 43.7803 41.9903 42.7643 41.9903 42.7643L43.0063 36.7464C45.5072 32.9559 44.9211 30.5722 44.9211 30.5722C44.4131 27.5633 45.7027 25.5704 45.7027 25.5704L48.3599 25.4141L48.7898 25.2969C49.7278 24.7103 47.2269 23.6162 47.2269 23.6162Z" fill="white"/>
</svg>
