<svg width="232" height="169" viewBox="0 0 232 169" fill="none" xmlns="http://www.w3.org/2000/svg">
<g clip-path="url(#clip0_173_14)">
<path d="M214.443 91.8818C212.334 90.8518 209.786 91.7248 208.755 93.8388C203.666 104.352 195.8 110.046 188.965 113.14C170.312 106.297 167.37 123.329 146.613 119.92C143.719 123.962 140.766 127.061 138.022 129.422C136.651 131.13 135.071 132.934 133.249 134.794L104.709 159.537C102.624 161.346 102.398 164.505 104.208 166.592C105.196 167.731 106.588 168.315 107.986 168.315C109.147 168.315 110.313 167.913 111.259 167.093L111.268 167.085C111.394 167.02 111.522 166.961 111.644 166.885L139.226 149.569C141.963 151.542 149.885 154.813 154.563 154.879C166.313 155.04 182.694 139.246 183.401 139.083C182.831 142.895 183.655 154.594 181.094 160.732C179.964 163.439 181.24 166.556 183.954 167.688C184.821 168.048 185.726 168.165 186.597 168.066C188.451 167.856 190.141 166.673 190.91 164.831C195.122 154.758 196.475 147.033 196.509 141.243C196.562 141.214 196.613 141.179 196.664 141.145C198.344 146.534 198.213 153.371 199.499 161.493C199.953 164.309 202.542 166.263 205.351 165.945C205.431 165.934 205.511 165.923 205.592 165.91C208.493 165.45 210.472 162.719 210.01 159.823C208.056 147.498 204.367 129.736 204.136 129.053C202.535 124.374 200.603 120.966 198.401 118.485C198.286 118.298 198.168 118.103 198.061 117.941C204.727 113.841 211.549 107.478 216.403 97.5718C217.439 95.4558 216.559 92.9088 214.443 91.8818ZM144.255 116.305C142.507 110.488 137.815 102.629 130.683 100.27C130.962 96.0868 130.149 92.6938 125.412 90.4608C121.431 88.5858 116.932 89.9358 118.849 91.5608C124.336 96.2138 121.526 101.03 121.33 101.207C121.09 101.422 118.357 106.654 113.783 108.356C110.56 109.554 101.533 111.739 101.634 115.848C101.737 120.007 102.244 120.86 104.107 123.005C106.776 126.076 113.242 123.512 117.713 124.234C119.768 124.563 124.477 129.023 127.079 131.834C128.087 131.382 129.355 130.733 130.817 129.812C134.548 127.457 139.486 123.347 144.255 116.305ZM121.737 114.067C119.942 114.067 118.487 112.612 118.487 110.817C118.487 109.022 119.942 107.567 121.737 107.567C123.532 107.567 124.987 109.022 124.987 110.817C124.987 112.612 123.532 114.067 121.737 114.067ZM207.918 86.5368C208.043 86.5368 208.167 86.5388 208.292 86.5478C208.844 86.5828 209.319 86.1668 209.355 85.6148C209.39 85.0638 208.971 84.5878 208.422 84.5518C208.244 84.5388 208.076 84.5358 207.918 84.5358C204.968 84.5298 202.904 86.0608 201.675 87.5138C200.432 88.9728 199.922 90.3838 199.899 90.4518C199.709 90.9698 199.978 91.5428 200.499 91.7328C200.61 91.7728 200.725 91.7928 200.837 91.7928C201.246 91.7928 201.631 91.5398 201.779 91.1318H201.777C201.779 91.1318 201.87 90.8778 202.101 90.4348C202.826 89.0738 204.612 86.5188 207.918 86.5368ZM208.141 79.9118C207.62 79.8668 207.122 79.8478 206.646 79.8478C201.579 79.8238 198.57 82.2658 197.041 84.6728C195.491 87.0748 195.255 89.3938 195.242 89.4808C195.182 90.0298 195.584 90.5228 196.133 90.5808C196.168 90.5848 196.203 90.5858 196.237 90.5858C196.742 90.5858 197.176 90.2038 197.232 89.6898H197.23C197.23 89.6878 197.274 89.2428 197.488 88.4958C198.2 86.2118 200.076 81.8758 206.646 81.8468C207.068 81.8468 207.506 81.8648 207.969 81.9048C208.52 81.9528 209.002 81.5458 209.051 80.9938C209.097 80.4448 208.692 79.9598 208.141 79.9118ZM224.207 90.1638C223.794 89.7968 223.16 89.8368 222.796 90.2498C222.432 90.6648 222.469 91.2968 222.884 91.6608H222.882C222.884 91.6608 222.984 91.7488 223.18 91.9658C223.779 92.6238 224.967 94.2468 224.956 96.3148C224.951 97.6688 224.49 99.2768 222.906 101.161C222.548 101.583 222.601 102.215 223.025 102.57C223.213 102.729 223.441 102.806 223.668 102.806C223.952 102.806 224.234 102.685 224.434 102.451C226.27 100.286 226.961 98.1568 226.956 96.3148C226.926 92.5278 224.278 90.2458 224.207 90.1638Z" fill="#6171A3"/>
<path d="M227.576 87.3508C227.111 87.6538 226.981 88.2728 227.284 88.7348C227.284 88.7348 227.403 88.9158 227.611 89.3068C228.236 90.4798 229.509 93.3378 229.507 96.8598C229.503 99.3748 228.877 102.226 226.898 105.17C226.588 105.627 226.71 106.248 227.168 106.558C227.339 106.674 227.533 106.729 227.726 106.729C228.048 106.729 228.365 106.574 228.558 106.286C230.771 103.004 231.511 99.7118 231.508 96.8608C231.497 91.5238 229.009 87.7298 228.96 87.6408C228.656 87.1788 228.037 87.0478 227.576 87.3508Z" fill="#6171A3"/>
<path d="M70.7709 27.6047C73.5885 15.5054 66.0637 3.41266 53.9638 0.594925C41.8639 -2.22281 29.7709 5.30143 26.9533 17.4008C24.1357 29.5001 31.6605 41.5928 43.7604 44.4106C55.8602 47.2283 67.9533 39.7041 70.7709 27.6047Z" fill="#6171A3"/>
<path d="M6.88075 63.8299C0.0757542 84.0039 -1.38625 97.1339 1.19975 119.35C4.32875 135.451 15.3638 137.103 24.5278 136.987C27.4598 136.95 29.8698 136.822 31.7668 136.211L37.9068 135.14L25.9408 147.682C21.1738 152.677 21.3588 160.589 26.3538 165.355C28.7738 167.665 31.8798 168.811 34.9808 168.811C38.2798 168.812 41.5728 167.514 44.0288 164.939L82.1948 124.941C85.9208 121.035 86.7198 115.182 84.1748 110.421C81.6318 105.659 76.3238 103.068 71.0048 103.996L36.3938 110.027C36.6258 100.54 38.2508 90.8149 39.9448 82.1489C31.4148 78.2209 25.9078 74.4849 23.9398 73.0629L23.9178 73.0479L23.8208 72.9779C21.6798 71.3759 20.2958 69.0379 19.9178 66.3919C19.5408 63.7469 20.2148 61.1139 21.8178 58.9749C23.6968 56.4699 26.6908 54.9749 29.8238 54.9749C32.0018 54.9749 34.0718 55.6669 35.8178 56.9759L35.9098 57.0439C36.0448 57.1379 36.2668 57.2939 36.5768 57.5039C37.4778 58.1079 38.4668 58.7329 39.5128 59.3549C40.4658 59.9229 41.6638 60.6049 43.0748 61.3559C42.3818 54.3649 38.7618 48.1569 32.8288 46.6769C24.2908 44.5509 11.9158 49.1869 6.88075 63.8299Z" fill="#6171A3"/>
<path d="M35.4624 59.1629C35.1354 58.9429 34.8994 58.7769 34.7584 58.6769C34.6904 58.6299 34.6454 58.5959 34.6204 58.5769C31.0854 55.9259 26.0704 56.6429 23.4204 60.1769C20.7704 63.7129 21.4854 68.7269 25.0214 71.3779C25.7904 71.9169 52.5184 91.9259 94.6144 91.9869C97.7994 91.9869 101.066 91.8689 104.413 91.6209C108.818 91.2939 112.125 87.4569 111.799 83.0509C111.472 78.6459 107.635 75.3389 103.23 75.6659C100.278 75.8839 97.4074 75.9859 94.6154 75.9879C76.1854 75.9879 61.0394 71.5429 50.5344 67.1119C45.2844 64.8969 41.2084 62.6929 38.4924 61.0749C37.1324 60.2659 36.1154 59.6029 35.4624 59.1629Z" fill="#6171A3"/>
</g>
<defs>
<clipPath id="clip0_173_14">
<rect width="231.504" height="168.811" fill="white"/>
</clipPath>
</defs>
</svg>
