<svg xmlns="http://www.w3.org/2000/svg" enable-background="new 0 0 50 50" viewBox="0 0 50 50" id="dog-training"><circle cx="11.858" cy="9.371" r="3.317"></circle><path d="M48.7169,29.547l-0.858-0.9049c0,0-0.3235-3.0381-1.9176-2.377c0,0-0.9377-0.8299-1.641-0.1548
		c0,0-1.2565-0.1969-1.3081,1.3362c-0.458,0.3732-0.94,0.6574-1.4808,0.9197l-14.9489-9.7681
		c0.8655-0.4862,1.2201-1.5621,0.7828-2.4689c-0.4548-0.9434-1.5889-1.339-2.5306-0.8833
		c-4.1925,2.0232-8.3863,0.582-10.3103-0.3197c-1.0495-1.2394-2.7036-1.5198-4.0403-0.8876
		c-5.0538,0.7064-8.9479,6.3117-9.1335,6.5831c-0.5904,0.8643-0.3687,2.0437,0.4956,2.6341
		c0.8639,0.5902,2.0442,0.3685,2.6342-0.4956c0.5829-0.8526,2.0407-2.5953,3.7709-3.782c-0.7132,7.775-0.8288,7.7634-0.5852,8.6661
		c-0.0288,0.2863-0.418,4.9767-0.4438,5.2861l-4.5761,7.7396c-0.5326,0.9014-0.2342,2.0637,0.6668,2.5963
		c0.9023,0.533,2.0636,0.235,2.5962-0.6668c6.0543-10.24,4.9314-7.4424,5.3493-12.4577c0.2594-0.0236,0.5091-0.0795,0.751-0.1594
		l3.0312,3.9325l-2.2178,7.6036c-0.2933,1.0049,0.2837,2.0572,1.2887,2.35c1.0005,0.2928,2.0558-0.2803,2.35-1.2886l2.4875-8.5286
		c0.1694-0.5812,0.0513-1.2082-0.3183-1.688l-4.2557-5.5207l0.7144-7.6192c2.6394,0.8606,6.3918,1.4241,10.3496-0.1158
		l14.8901,9.7297c-5.8609,1.7222-8.6607-1.0474-10.3033,1.3925c-0.0208,0.0081-0.0384,0.0146-0.0608,0.0235
		c-0.2347,0.0921-0.5646,0.2318-0.9504,0.4224c-1.0398,0.5225-4.2604,3.4513-6.524,0.6603c2.0684,3.18,5.9673,0.3755,6.9685,0.0194
		c-0.8269,2.9433,1.7525,5.2554-0.3061,7.6572c-0.7598,0.8634,0.0377,1.7474,0.3235,2.7474l0.5251,1.777l0.4126-0.2954
		c-0.4671-3.014-0.634-3.0098,0.7032-5.1949c-0.1313,0.2813-0.6845,1.5941,0.4408,1.8567l2.1661,1.2612l0.7923-0.15
		c-1.4652-1.2943-2.3688-1.8007-1.9785-2.8741c0.9437-2.625,0.7589-2.6727,2.2411-2.4661c0,0,3.5163,1.6175,4.9229,1.0033
		c-0.7417,0.8344-0.456,1.4497-0.7408,2.86c-0.1079,0.5485-0.1079,1.2425,0.3329,1.8285l1.3456,2.5786
		c0,0,1.8145-0.2626,0.3798-0.5251l-0.422-1.3128c-0.3751-1.1534-0.3985-2.3864-0.075-3.5538l1.9036,0.5017l-1.055,1.9316v0.8486
		c0,0,3.2585-3.5398,1.3972-3.657c-0.6305-0.036-1.183-0.2037-1.7769-0.3844c3.1783-3.7748,2.3123-4.3466,3.2819-6.2404v-1.205
		l1.6691,1.2331l0.2954-0.1782c0,0,0.2907,0.061,0,1.2003c0,0,0.3517,0.5767,0.5345-0.1641c0,0,0.3517-1.6128-0.5439-1.5706
		l-0.5673-0.7736l0.0563-0.2907c0,0,0.8392,0.136,1.1252,0.6704c0,0,1.1112,0.9565,1.6879-0.0468
		C48.5106,30.4284,49.4576,29.8798,48.7169,29.547z M46.0726,27.3106c0-0.4401,0.6563-0.4401,0.6563,0
		C46.729,27.7439,46.0726,27.7457,46.0726,27.3106z"></path></svg>