<svg width="80" height="80" viewBox="0 0 80 80" fill="none" xmlns="http://www.w3.org/2000/svg">
<path d="M28.3717 32.8291C30.1758 32.8291 31.6427 31.3621 31.6427 29.5591C31.6427 27.7561 30.1757 26.2891 28.3727 26.2891C26.5697 26.2891 25.1017 27.7551 25.1017 29.5591C25.1017 31.3631 26.5688 32.8291 28.3717 32.8291ZM28.3717 28.2891C29.0728 28.2891 29.6427 28.8591 29.6427 29.5591C29.6427 30.2591 29.0728 30.8291 28.3727 30.8291C27.6727 30.8291 27.1017 30.2591 27.1017 29.5591C27.1017 28.8591 27.6718 28.2891 28.3717 28.2891ZM19.2587 29.5591C19.2587 27.7551 17.7917 26.2891 15.9887 26.2891C14.1857 26.2891 12.7188 27.7551 12.7188 29.5591C12.7188 31.3631 14.1847 32.8291 15.9887 32.8291C17.7927 32.8291 19.2587 31.3621 19.2587 29.5591ZM15.9887 30.8291C15.2877 30.8291 14.7188 30.2591 14.7188 29.5591C14.7188 28.8591 15.2877 28.2891 15.9887 28.2891C16.6897 28.2891 17.2587 28.8591 17.2587 29.5591C17.2587 30.2591 16.6887 30.8291 15.9887 30.8291ZM26.1887 39.0731C26.5287 39.0731 26.8888 39.0421 27.2708 38.9771C27.5321 38.932 27.7649 38.7849 27.9178 38.5682C28.0707 38.3515 28.1313 38.0829 28.0863 37.8216C28.0412 37.5602 27.8941 37.3274 27.6774 37.1745C27.4607 37.0216 27.1921 36.961 26.9307 37.0061C23.9888 37.5161 23.3427 34.7621 23.2787 34.4421C23.2787 34.4391 23.2758 34.4371 23.2747 34.4341C23.2568 34.3441 23.2148 34.2661 23.1728 34.1861C23.1548 34.1501 23.1477 34.1061 23.1248 34.0741C23.1228 34.0701 23.1187 34.0681 23.1157 34.0641C23.0457 33.9628 22.9576 33.8753 22.8557 33.8061C22.8457 33.8001 22.8357 33.7991 22.8267 33.7931C22.7249 33.7277 22.6121 33.6813 22.4937 33.6561L22.4888 33.6541C22.4548 33.6481 22.4237 33.6581 22.3907 33.6541C22.2987 33.6461 22.2067 33.6331 22.1108 33.6501C22.1058 33.6511 22.1018 33.6551 22.0968 33.6561C22.0468 33.6661 22.0028 33.6961 21.9548 33.7141C21.7963 33.7699 21.6547 33.8652 21.5435 33.991C21.4322 34.1169 21.3548 34.269 21.3188 34.4331C21.3188 34.4361 21.3158 34.4381 21.3158 34.4411C21.2517 34.7571 20.6048 37.5161 17.6628 37.0061C17.4052 36.9694 17.1436 37.0346 16.9333 37.1876C16.7231 37.3407 16.5807 37.5697 16.5365 37.826C16.4922 38.0823 16.5496 38.3458 16.6964 38.5605C16.8432 38.7752 17.0679 38.9243 17.3228 38.9761C17.7048 39.0421 18.0648 39.0731 18.4048 39.0731C20.2748 39.0731 21.5217 38.1471 22.2967 37.0671C23.0717 38.1471 24.3197 39.0731 26.1887 39.0731ZM58.8918 55.2721C56.3027 55.2721 54.1968 57.3771 54.1968 59.9661C54.1968 62.5551 56.3027 64.6611 58.8918 64.6611C61.4798 64.6611 63.5858 62.5551 63.5858 59.9661C63.5858 57.3771 61.4798 55.2721 58.8918 55.2721ZM58.8918 62.6621C58.1771 62.6613 57.4919 62.3769 56.9866 61.8715C56.4814 61.366 56.1973 60.6808 56.1968 59.9661C56.1978 59.2517 56.4821 58.567 56.9873 58.0619C57.4925 57.5569 58.1774 57.2729 58.8918 57.2721C59.606 57.2729 60.2908 57.5569 60.7958 58.062C61.3009 58.567 61.585 59.2518 61.5858 59.9661C61.585 60.6804 61.3009 61.3653 60.7959 61.8705C60.2909 62.3757 59.6061 62.661 58.8918 62.6621ZM28.7617 55.2721C26.1727 55.2721 24.0667 57.3771 24.0667 59.9661C24.0667 62.5551 26.1727 64.6611 28.7617 64.6611C31.3507 64.6611 33.4557 62.5551 33.4557 59.9661C33.4557 57.3771 31.3507 55.2721 28.7617 55.2721ZM28.7617 62.6621C28.0471 62.6613 27.3619 62.3769 26.8566 61.8715C26.3514 61.366 26.0673 60.6808 26.0667 59.9661C26.0667 58.4801 27.2767 57.2721 28.7617 57.2721C30.2467 57.2721 31.4557 58.4801 31.4557 59.9661C31.455 60.6804 31.1709 61.3653 30.6659 61.8705C30.1609 62.3757 29.4761 62.661 28.7617 62.6621Z" fill="white"/>
<path d="M68.1625 16.0179C66.0705 16.7279 64.9495 19.0139 65.6635 21.1129C69.0825 31.0919 64.7265 34.8559 61.8385 36.7099C56.0635 27.7379 44.4165 27.9999 40.7795 28.3229C40.7384 27.6561 40.6583 26.9923 40.5395 26.3349L45.7395 11.4869C45.8037 11.3017 45.8122 11.1018 45.7639 10.9119C45.7156 10.7219 45.6126 10.5504 45.4677 10.4184C45.3228 10.2865 45.1423 10.2 44.9487 10.1697C44.755 10.1394 44.5568 10.1666 44.3785 10.2479L33.3405 15.3029C30.5126 13.3725 27.1674 12.3414 23.7435 12.3449C21.4565 12.3449 19.2775 12.8039 17.2815 13.6219L6.29747 10.2019C6.12725 10.1486 5.94587 10.1418 5.77216 10.1823C5.59846 10.2228 5.43876 10.3091 5.30966 10.4322C5.18057 10.5553 5.08677 10.7107 5.03803 10.8822C4.98928 11.0538 4.98736 11.2353 5.03247 11.4079L7.99047 22.8099C7.10563 24.9067 6.65098 27.16 6.65347 29.4359C6.65347 37.2129 11.8795 43.7809 19.0005 45.8439C19.1825 47.3369 19.8015 50.8209 21.7105 53.0639C19.8996 54.9051 18.885 57.3844 18.8855 59.9669C18.8855 65.4149 23.3175 69.8469 28.7655 69.8469C33.0755 69.8469 36.7415 67.0669 38.0865 63.2089H49.5735C50.9185 67.0669 54.5835 69.8469 58.8955 69.8469C64.3425 69.8469 68.7745 65.4149 68.7745 59.9669C68.7745 56.7729 67.2445 53.9369 64.8855 52.1299C65.1055 49.2909 65.0175 46.6899 64.6355 44.3649C64.7295 44.3189 64.8265 44.2809 64.9175 44.2269C68.4495 42.1589 79.1975 35.8689 73.2455 18.5169C72.9024 17.5117 72.1743 16.6839 71.2213 16.2151C70.2682 15.7464 69.1681 15.6751 68.1625 16.0169V16.0179ZM43.0745 13.0449L39.5785 23.0289C38.5889 20.6037 37.0567 18.4376 35.0995 16.6969L43.0745 13.0449ZM7.41947 12.6469L14.7515 14.9289C12.5936 16.27 10.7597 18.0725 9.38147 20.2069L7.41947 12.6469ZM8.65347 29.4359C8.65347 21.1139 15.4235 14.3449 23.7445 14.3449C32.0655 14.3449 38.8355 21.1149 38.8355 29.4349C38.8355 37.7549 32.0655 44.5269 23.7455 44.5269C15.4255 44.5269 8.65347 37.7569 8.65347 29.4359ZM28.7655 67.8459C24.4205 67.8459 20.8855 64.3119 20.8855 59.9659C20.8855 55.6199 24.4205 52.0879 28.7655 52.0879C33.1105 52.0879 36.6445 55.6219 36.6445 59.9669C36.6445 64.3119 33.1095 67.8469 28.7645 67.8469L28.7655 67.8459ZM66.7745 59.9679C66.7745 64.3129 63.2395 67.8469 58.8945 67.8469C54.5495 67.8469 51.0155 64.3129 51.0155 59.9669C51.0155 55.6209 54.5505 52.0869 58.8955 52.0869C63.2405 52.0869 66.7745 55.6239 66.7745 59.9679ZM63.9025 42.5019C63.7115 42.6159 63.5125 42.6949 63.3135 42.7379V42.7409C63.0571 42.7962 62.8326 42.9501 62.6886 43.1693C62.5446 43.3885 62.4925 43.6556 62.5435 43.9129C62.9615 45.9949 63.0875 48.3719 62.9535 50.9689C61.6792 50.3887 60.2956 50.0879 58.8955 50.0869C53.4475 50.0869 49.0155 54.5189 49.0155 59.9669C49.0155 60.3879 49.0505 60.8009 49.1025 61.2079H38.5575C38.6095 60.7999 38.6445 60.3879 38.6445 59.9659C38.6445 54.5189 34.2125 50.0859 28.7645 50.0859C26.7942 50.0839 24.8688 50.6745 23.2385 51.7809C21.9155 50.2539 21.3305 47.7979 21.0875 46.2979C21.9555 46.4349 22.8385 46.5259 23.7445 46.5259C32.8645 46.5259 40.3175 39.3409 40.7905 30.3359C43.9505 30.0589 55.6415 29.6859 60.6375 38.5799C60.7017 38.6945 60.7879 38.7953 60.8911 38.8766C60.9944 38.9579 61.1126 39.0181 61.2391 39.0536C61.3656 39.0892 61.4978 39.0995 61.6283 39.0839C61.7588 39.0683 61.8849 39.0272 61.9995 38.9629C62.0095 38.9569 62.0145 38.9469 62.0235 38.9409L62.0265 38.9459C64.9665 37.1679 71.8525 33.0019 67.5565 20.4659C67.3839 19.9612 67.4185 19.4086 67.6529 18.9294C67.8872 18.4502 68.3021 18.0835 68.8065 17.9099C69.3101 17.7385 69.8612 17.7741 70.3386 18.0089C70.816 18.2437 71.1807 18.6584 71.3525 19.1619C76.2125 33.3299 69.4315 39.2669 63.9025 42.5019Z" fill="white"/>
</svg>
