<svg xmlns="http://www.w3.org/2000/svg" viewBox="0 0 80 80" id="rolling-cat-toy"><path d="M28.375 32.828c1.804 0 3.271-1.467 3.271-3.27s-1.467-3.27-3.27-3.27-3.271 1.466-3.271 3.27 1.467 3.27 3.27 3.27zm0-4.54c.701 0 1.271.57 1.271 1.27s-.57 1.27-1.27 1.27-1.271-.57-1.271-1.27.57-1.27 1.27-1.27zm-9.113 1.27c0-1.804-1.467-3.27-3.27-3.27s-3.27 1.466-3.27 3.27 1.466 3.27 3.27 3.27 3.27-1.467 3.27-3.27zm-3.27 1.27c-.701 0-1.27-.57-1.27-1.27s.569-1.27 1.27-1.27 1.27.57 1.27 1.27-.57 1.27-1.27 1.27zm10.2 8.244c.34 0 .7-.031 1.082-.096a1 1 0 0 0-.34-1.971c-2.942.51-3.588-2.244-3.652-2.564 0-.003-.003-.005-.004-.008-.018-.09-.06-.168-.102-.248-.018-.036-.025-.08-.048-.112-.002-.004-.006-.006-.009-.01a.999.999 0 0 0-.26-.258c-.01-.006-.02-.007-.029-.013a1.004 1.004 0 0 0-.333-.137l-.005-.002c-.034-.006-.065.004-.098 0-.092-.008-.184-.021-.28-.004-.005.001-.009.005-.014.006-.05.01-.094.04-.142.058a.987.987 0 0 0-.636.719c0 .003-.003.005-.003.008-.064.316-.711 3.075-3.653 2.565a1 1 0 0 0-.34 1.97c.382.066.742.097 1.082.097 1.87 0 3.117-.926 3.892-2.006.775 1.08 2.023 2.006 3.892 2.006zm32.703 16.199c-2.589 0-4.695 2.105-4.695 4.694s2.106 4.695 4.695 4.695c2.588 0 4.694-2.106 4.694-4.695s-2.106-4.694-4.694-4.694zm0 7.39a2.698 2.698 0 0 1-2.695-2.696 2.698 2.698 0 0 1 2.695-2.694 2.697 2.697 0 0 1 2.694 2.694 2.698 2.698 0 0 1-2.694 2.695zm-30.13-7.39c-2.589 0-4.695 2.105-4.695 4.694s2.106 4.695 4.695 4.695c2.589 0 4.694-2.106 4.694-4.695s-2.105-4.694-4.694-4.694zm0 7.39a2.698 2.698 0 0 1-2.695-2.696c0-1.486 1.21-2.694 2.695-2.694s2.694 1.208 2.694 2.694a2.698 2.698 0 0 1-2.694 2.695z"></path><path d="M68.162 16.016c-2.092.71-3.213 2.996-2.499 5.095 3.419 9.979-.937 13.743-3.825 15.597-5.775-8.972-17.422-8.71-21.059-8.387a17.067 17.067 0 0 0-.24-1.988l5.2-14.848a1.001 1.001 0 0 0-1.361-1.239L33.34 15.301a16.992 16.992 0 0 0-9.597-2.958c-2.287 0-4.466.459-6.462 1.277L6.297 10.2a.999.999 0 0 0-1.265 1.206L7.99 22.808a16.995 16.995 0 0 0-1.337 6.626c0 7.777 5.226 14.345 12.347 16.408.182 1.493.801 4.977 2.71 7.22a9.842 9.842 0 0 0-2.825 6.903c0 5.448 4.432 9.88 9.88 9.88 4.31 0 7.976-2.78 9.321-6.638h11.487c1.345 3.858 5.01 6.638 9.322 6.638 5.447 0 9.879-4.432 9.879-9.88 0-3.194-1.53-6.03-3.889-7.837.22-2.839.132-5.44-.25-7.765.094-.046.191-.084.282-.138 3.532-2.068 14.28-8.358 8.328-25.71a4.008 4.008 0 0 0-5.083-2.5zm-25.088-2.973-3.496 9.984a17.14 17.14 0 0 0-4.479-6.332l7.975-3.652zm-35.655-.398 7.332 2.282a17.2 17.2 0 0 0-5.37 5.278l-1.962-7.56zm1.234 16.789c0-8.322 6.77-15.091 15.091-15.091s15.091 6.77 15.091 15.09-6.77 15.092-15.09 15.092-15.092-6.77-15.092-15.091zm20.112 38.41c-4.345 0-7.88-3.534-7.88-7.88s3.535-7.878 7.88-7.878 7.879 3.534 7.879 7.879-3.535 7.88-7.88 7.88zm38.009-7.878c0 4.345-3.535 7.879-7.88 7.879s-7.879-3.534-7.879-7.88 3.535-7.88 7.88-7.88 7.879 3.536 7.879 7.88zM63.902 42.5c-.191.114-.39.193-.589.236v.003a1 1 0 0 0-.77 1.172c.418 2.082.544 4.459.41 7.056a9.81 9.81 0 0 0-4.058-.882c-5.448 0-9.88 4.432-9.88 9.88 0 .421.035.834.087 1.241H38.557c.052-.408.087-.82.087-1.242 0-5.447-4.432-9.88-9.88-9.88a9.823 9.823 0 0 0-5.526 1.695c-1.323-1.527-1.908-3.983-2.151-5.483.868.137 1.751.228 2.657.228 9.12 0 16.573-7.185 17.046-16.19 3.16-.277 14.851-.65 19.847 8.244a1 1 0 0 0 1.362.383c.01-.006.015-.016.024-.022l.003.005c2.94-1.778 9.826-5.944 5.53-18.48a2.014 2.014 0 0 1 1.25-2.556 2.007 2.007 0 0 1 2.546 1.252c4.86 14.168-1.921 20.105-7.45 23.34z"></path></svg>