<svg width="48" height="36" viewBox="0 0 48 36" fill="none" xmlns="http://www.w3.org/2000/svg">
<path d="M45.36 15.4157C45.9292 16.1254 46.2446 17.0477 46.2446 18.0008C46.2446 18.9574 45.9292 19.8763 45.36 20.586C41.76 24.9437 33.5657 33.4294 24 33.4294C14.4343 33.4294 6.24003 24.9437 2.64003 20.586C2.06124 19.8491 1.74941 18.9378 1.75546 18.0008C1.75546 17.0477 2.07089 16.1254 2.64003 15.4157C6.24003 11.058 14.4343 2.57227 24 2.57227C33.5657 2.57227 41.76 11.058 45.36 15.4157Z" stroke="white" stroke-width="3.42857" stroke-linecap="round" stroke-linejoin="round"/>
<path d="M24.0002 24.8588C25.8188 24.8588 27.563 24.1364 28.8489 22.8504C30.1349 21.5644 30.8574 19.8203 30.8574 18.0017C30.8574 16.183 30.1349 14.4389 28.8489 13.1529C27.563 11.867 25.8188 11.1445 24.0002 11.1445C22.1816 11.1445 20.4374 11.867 19.1515 13.1529C17.8655 14.4389 17.1431 16.183 17.1431 18.0017C17.1431 19.8203 17.8655 21.5644 19.1515 22.8504C20.4374 24.1364 22.1816 24.8588 24.0002 24.8588Z" stroke="white" stroke-width="3.42857" stroke-linecap="round" stroke-linejoin="round"/>
</svg>
