<svg width="48" height="36" viewBox="0 0 48 36" fill="none" xmlns="http://www.w3.org/2000/svg">
<path fill-rule="evenodd" clip-rule="evenodd" d="M10.0561 5.96942C13.9064 3.19228 18.7064 0.857422 24.0001 0.857422C29.2938 0.857422 34.0938 3.19571 37.9441 5.96942C41.8115 8.75342 44.8698 12.086 46.7212 14.3248L46.7384 14.342C47.5647 15.3706 48.0001 16.6768 48.0001 18.0003C48.0001 19.3237 47.5647 20.6266 46.7384 21.6586L46.7212 21.6757C44.8698 23.9146 41.8115 27.2471 37.9441 30.0311C34.0938 32.8117 29.2938 35.1431 24.0001 35.1431C18.7064 35.1431 13.9064 32.8048 10.0561 30.0346C6.18867 27.2437 3.13038 23.9111 1.27895 21.6723L1.26181 21.6551C0.437629 20.6159 -0.0074446 19.3266 9.42189e-05 18.0003C9.42189e-05 16.6768 0.435523 15.374 1.26181 14.342L1.27895 14.3248C3.13038 12.086 6.18867 8.75342 10.0561 5.96942ZM24.0001 25.7146C25.0131 25.7146 26.0163 25.515 26.9522 25.1273C27.8882 24.7397 28.7386 24.1714 29.4549 23.4551C30.1713 22.7388 30.7395 21.8883 31.1272 20.9524C31.5148 20.0165 31.7144 19.0133 31.7144 18.0003C31.7144 16.9872 31.5148 15.9841 31.1272 15.0481C30.7395 14.1122 30.1713 13.2618 29.4549 12.5455C28.7386 11.8291 27.8882 11.2609 26.9522 10.8732C26.0163 10.4855 25.0131 10.286 24.0001 10.286C21.9541 10.286 19.992 11.0987 18.5453 12.5455C17.0986 13.9922 16.2858 15.9543 16.2858 18.0003C16.2858 20.0462 17.0986 22.0084 18.5453 23.4551C19.992 24.9018 21.9541 25.7146 24.0001 25.7146Z" fill="white"/>
</svg>
