<svg width="48" height="48" viewBox="0 0 48 48" fill="none" xmlns="http://www.w3.org/2000/svg">
<path d="M45.3605 21.4147C45.9297 22.1244 46.2451 23.0467 46.2451 23.9999C46.2451 24.9564 45.9297 25.8753 45.3605 26.585C41.7605 30.9427 33.5662 39.4284 24.0005 39.4284C14.4348 39.4284 6.24052 30.9427 2.64052 26.585C2.06173 25.8482 1.74989 24.9368 1.75595 23.9999C1.75595 23.0467 2.07137 22.1244 2.64052 21.4147C6.24052 17.057 14.4348 8.57129 24.0005 8.57129C33.5662 8.57129 41.7605 17.057 45.3605 21.4147Z" stroke="black" stroke-width="3.42857" stroke-linecap="round" stroke-linejoin="round"/>
<path d="M23.9997 30.8569C25.8183 30.8569 27.5625 30.1344 28.8485 28.8485C30.1344 27.5625 30.8569 25.8183 30.8569 23.9997C30.8569 22.1811 30.1344 20.437 28.8485 19.151C27.5625 17.865 25.8183 17.1426 23.9997 17.1426C22.1811 17.1426 20.437 17.865 19.151 19.151C17.865 20.437 17.1426 22.1811 17.1426 23.9997C17.1426 25.8183 17.865 27.5625 19.151 28.8485C20.437 30.1344 22.1811 30.8569 23.9997 30.8569Z" stroke="black" stroke-width="3.42857" stroke-linecap="round" stroke-linejoin="round"/>
</svg>
