<svg width="48" height="48" viewBox="0 0 48 48" fill="none" xmlns="http://www.w3.org/2000/svg">
<g clip-path="url(#clip0_129_5)">
<path fill-rule="evenodd" clip-rule="evenodd" d="M19.0535 2.36571L17.4661 6.46286L12.0009 9.56229L7.64665 8.89714C6.92048 8.79803 6.18125 8.91726 5.52306 9.23964C4.86488 9.56201 4.31751 10.073 3.95065 10.7074L2.47636 13.2926C2.09781 13.9363 1.92334 14.6797 1.97598 15.4246C2.02863 16.1696 2.3059 16.881 2.77122 17.4651L5.53808 20.8971V27.1029L2.84665 30.5349C2.38133 31.119 2.10405 31.8304 2.05141 32.5754C1.99877 33.3203 2.17324 34.0637 2.55179 34.7074L4.02608 37.2926C4.39294 37.927 4.9403 38.438 5.59849 38.7604C6.25668 39.0827 6.99591 39.202 7.72208 39.1029L12.0764 38.4377L17.4695 41.5371L19.0569 45.6377C19.3241 46.3309 19.7944 46.9273 20.4061 47.3488C21.0179 47.7703 21.7426 47.9972 22.4855 48H25.5884C26.3328 47.9984 27.0594 47.7715 27.6725 47.3493C28.2857 46.9271 28.7567 46.3292 29.0238 45.6343L30.6112 41.5371L36.0009 38.4377L40.3552 39.1029C41.0814 39.202 41.8206 39.0827 42.4788 38.7604C43.137 38.438 43.6844 37.927 44.0512 37.2926L45.5255 34.7074C45.9041 34.0637 46.0785 33.3203 46.0259 32.5754C45.9732 31.8304 45.696 31.119 45.2307 30.5349L42.4638 27.1029V20.8971L45.1586 17.4651C45.624 16.881 45.9012 16.1696 45.9539 15.4246C46.0065 14.6797 45.8321 13.9363 45.4535 13.2926L43.9792 10.7074C43.6127 10.0726 43.0654 9.56143 42.4071 9.23901C41.7488 8.91658 41.0094 8.79757 40.2832 8.89714L35.9289 9.56229L30.5358 6.46286L28.9484 2.36229C28.6806 1.66883 28.2097 1.07235 27.5974 0.650869C26.985 0.229391 26.2597 0.00254276 25.5164 0L22.4855 0C21.7417 0.00281081 21.0162 0.230163 20.4038 0.652284C19.7914 1.0744 19.3208 1.67162 19.0535 2.36571ZM24.0009 31.7143C25.014 31.7143 26.0171 31.5147 26.9531 31.1271C27.889 30.7394 28.7394 30.1712 29.4558 29.4548C30.1721 28.7385 30.7403 27.8881 31.128 26.9521C31.5157 26.0162 31.7152 25.0131 31.7152 24C31.7152 22.9869 31.5157 21.9838 31.128 21.0479C30.7403 20.1119 30.1721 19.2615 29.4558 18.5452C28.7394 17.8288 27.889 17.2606 26.9531 16.8729C26.0171 16.4852 25.014 16.2857 24.0009 16.2857C21.955 16.2857 19.9928 17.0985 18.5461 18.5452C17.0994 19.9919 16.2866 21.954 16.2866 24C16.2866 26.046 17.0994 28.0081 18.5461 29.4548C19.9928 30.9015 21.955 31.7143 24.0009 31.7143Z" fill="#6171A3"/>
</g>
<defs>
<clipPath id="clip0_129_5">
<rect width="48" height="48" fill="white"/>
</clipPath>
</defs>
</svg>
