<svg width="48" height="49" viewBox="0 0 48 49" fill="none" xmlns="http://www.w3.org/2000/svg">
<g clip-path="url(#clip0_108_18)">
<path fill-rule="evenodd" clip-rule="evenodd" d="M22.1483 31.5997H25.8511C27.1266 32.2682 28.0008 33.6088 28.0008 35.1517V43.8602C28.0008 44.3149 28.1815 44.7509 28.5029 45.0724C28.8244 45.3939 29.2605 45.5745 29.7151 45.5745H34.8443C37.9848 45.5745 40.6591 43.2842 41.1357 40.178C41.5746 37.3357 41.7528 34.466 41.6843 31.5997H45.4283C45.9208 31.5998 46.4031 31.4585 46.8176 31.1924C47.2322 30.9264 47.5616 30.5469 47.7668 30.0991C47.9719 29.6513 48.0441 29.154 47.9748 28.6663C47.9054 28.1786 47.6975 27.7211 47.3757 27.3482L28.5426 5.50824C27.9793 4.8554 27.2819 4.33162 26.498 3.9726C25.7141 3.61358 24.8619 3.42773 23.9997 3.42773C23.1375 3.42773 22.2853 3.61358 21.5014 3.9726C20.7175 4.33162 20.0201 4.8554 19.4568 5.50824L0.623701 27.3448C0.301889 27.7177 0.0939528 28.1752 0.0246233 28.6629C-0.0447062 29.1505 0.0274882 29.6479 0.23262 30.0957C0.437752 30.5435 0.76719 30.923 1.18175 31.189C1.59632 31.455 2.07856 31.5964 2.57113 31.5962H6.31856C6.24313 34.4625 6.42484 37.3357 6.8637 40.1745C7.3437 43.2808 10.0111 45.5711 13.1551 45.5711H18.2808C18.7355 45.5711 19.1715 45.3905 19.493 45.069C19.8145 44.7475 19.9951 44.3115 19.9951 43.8568V35.1482C19.9951 33.6054 20.8694 32.2682 22.1483 31.5962V31.5997Z" fill="#6171A3"/>
</g>
<defs>
<clipPath id="clip0_108_18">
<rect width="48" height="48" fill="white" transform="translate(0 0.5)"/>
</clipPath>
</defs>
</svg>
