<svg xmlns="http://www.w3.org/2000/svg" data-name="Layer 1" viewBox="0 0 512 512" id="labrador-retriever"><path d="M165.78 332a3.91 3.91 0 01-3.75-5c4.42-14.87 10.87-23.61 13.36-26.6 2.35-43.85 10.69-75.15 17.3-93.75a3.92 3.92 0 017.38 2.62c-6.51 18.3-14.73 49.26-16.93 92.89a3.93 3.93 0 01-1.1 2.52c-.07.07-7.64 8.15-12.5 24.54A3.93 3.93 0 01165.78 332zM361.71 335.16a3.9 3.9 0 01-3.78-2.93c-4.77-18.44-13.26-27.47-13.35-27.57a4 4 0 01-1.09-2.51c-2.19-43.58-10.43-74.61-17-93a3.92 3.92 0 017.38-2.62c6.63 18.66 15 50 17.34 93.83 2.67 3.2 9.89 13 14.26 29.88a3.9 3.9 0 01-2.81 4.76A3.72 3.72 0 01361.71 335.16zM263.3 295.81c-24.9 0-41-15.95-41-40.62 0-.79 0-1.58.07-2.36l.05-1.09a4 4 0 014-3.77 3.91 3.91 0 013.78 4l0 1.19c0 .66-.07 1.33-.07 2 0 24.18 17.13 32.8 33.16 32.8s33.15-8.62 33.15-32.8c0-1 0-2-.11-3a3.91 3.91 0 117.8-.57c.09 1.2.13 2.4.13 3.6C304.27 279.86 288.19 295.81 263.3 295.81z"></path><path d="M355.56,230.74a10.92,10.92,0,0,1-6.46-2.28c-12.6-9.2-20.25-45.74-15.44-73.78C340,117.49,336.09,96.6,330.78,90a3.91,3.91,0,1,1,6.09-4.91c8.6,10.66,10.28,37.16,4.5,70.89-5,29,4.06,60.1,12.34,66.14,1.55,1.13,2.29.76,2.73.53,3.75-1.94,4-5.22,4.08-11.32.11-6.7.27-15.88,10.79-20.63,9.82-4.44,23.34-21.18,27.81-34.45,1.67-5,1.93-9,.71-11.21-6.41-11.82-58.48-74.72-68.62-79.79-5.5-2.75-14.64-2.2-22.69-1.72-6.65.4-12.93.78-17.59-.55-14-4-30.37-6.71-55.31,0-4.6,1.24-10.78.87-17.32.49-8.14-.48-17.35-1-22.91,1.76-10.15,5.07-62.21,68-68.61,79.79-1.22,2.25-1,6.24.7,11.21,4.47,13.27,18,30,27.81,34.45,10.53,4.75,10.68,13.93,10.79,20.63.11,6.1.33,9.38,4.07,11.32.44.23,1.17.61,2.74-.53,8.28-6,17.31-37.17,12.34-66.14-5.78-33.73-4.1-60.23,4.5-70.89A3.91,3.91,0,0,1,195.82,90c-5.31,6.58-9.25,27.47-2.88,64.66,4.81,28-2.84,64.58-15.44,73.78-3.54,2.58-7.42,3-11,1.15-8-4.18-8.17-11.91-8.28-18.13-.12-7-.46-11-6.19-13.63-11.83-5.35-26.79-23.61-32-39.08-2.45-7.26-2.5-13.13-.17-17.43,6.37-11.77,59.74-76.94,72-83.07,7.43-3.71,17.75-3.1,26.86-2.57,5.9.35,11.46.67,14.83-.24,26.86-7.24,45.14-4.05,59.49,0,3.39,1,9,.62,15,.26,9-.55,19.28-1.16,26.66,2.53,12.25,6.13,65.62,71.3,72,83.07,2.34,4.3,2.28,10.17-.17,17.43-5.21,15.47-20.16,33.73-32,39.08-5.73,2.58-6.07,6.66-6.19,13.63-.11,6.22-.24,14-8.29,18.13A9.58,9.58,0,0,1,355.56,230.74Z"></path><path d="M239,258a44.19,44.19,0,0,1-10.32-1.28c-29.42-7.09-42-68.62-42.51-71.24A3.91,3.91,0,0,1,193.8,184c3.28,16.46,16.27,60.25,36.67,65.17,19.53,4.69,29.61-8.2,29.71-8.33a4.06,4.06,0,0,1,6.23,0c.4.52,10.35,13,29.74,8.32,20.4-4.92,33.37-48.7,36.65-65.16a3.91,3.91,0,1,1,7.67,1.53c-.52,2.62-13.1,64.15-42.49,71.24-17.86,4.3-29.48-3.26-34.68-7.93A36.11,36.11,0,0,1,239,258Z"></path><path d="M263.3,232.41A22,22,0,0,1,251,228.64c-12.49-8.4-22-24.17-16.3-36,6.73-14,24.83-12.16,28.58-11.61,3.75-.54,21.86-2.34,28.57,11.61h0c5.71,11.86-3.8,27.63-16.3,36A21.9,21.9,0,0,1,263.3,232.41ZM257.74,188c-5.22,0-13.16,1.17-16.35,7.79-3.73,7.76,4.25,20.29,13.76,26.69a14.55,14.55,0,0,0,16.29,0c9.51-6.4,17.5-18.93,13.77-26.69h0c-4.94-10.26-21.1-7.47-21.26-7.44a3.61,3.61,0,0,1-1.31,0A32,32,0,0,0,257.74,188Z"></path><path d="M274.24 195.7c-2.92 0-5.29 2.73-5.29 6.1s2.37 6.1 5.29 6.1 5.28-2.73 5.28-6.1S277.15 195.7 274.24 195.7zM252.37 195.7c-2.91 0-5.28 2.73-5.28 6.1s2.37 6.1 5.28 6.1 5.29-2.73 5.29-6.1S255.29 195.7 252.37 195.7zM286 141.17a3.91 3.91 0 01-3-6.45 39.76 39.76 0 0125.35-13.52 3.91 3.91 0 11.83 7.77 31.82 31.82 0 00-20.23 10.83A3.91 3.91 0 01286 141.17z"></path><path d="M300.46 148.34a12.21 12.21 0 1112.21-12.21A12.23 12.23 0 01300.46 148.34zm0-16.59a4.38 4.38 0 104.38 4.38A4.39 4.39 0 00300.46 131.75zM240.66 141.17a3.91 3.91 0 01-3-1.37A31.82 31.82 0 00217.46 129a3.91 3.91 0 11.82-7.77 39.79 39.79 0 0125.36 13.52 3.92 3.92 0 01-3 6.45z"></path><path d="M226.17 148.34a12.21 12.21 0 1112.2-12.21A12.22 12.22 0 01226.17 148.34zm0-16.59a4.38 4.38 0 104.37 4.38A4.39 4.39 0 00226.17 131.75zM383.05 375.15a3.91 3.91 0 01-1.5-7.53c28.92-12 73.44-25.17 121.31-20.11a3.91 3.91 0 01-.83 7.78c-46.21-4.89-89.41 7.93-117.49 19.56A3.92 3.92 0 01383.05 375.15zM136.88 376.92a4 4 0 01-1.57-.33c-60.47-26.52-124.5-16.77-125.14-16.68a3.87 3.87 0 01-4.47-3.24 3.91 3.91 0 013.24-4.48c2.7-.43 66.88-10.23 129.51 17.23a3.92 3.92 0 01-1.57 7.5zM311.92 378.1a4 4 0 01-1-.13 204.31 204.31 0 00-100.42-1.71 3.91 3.91 0 11-1.78-7.61 212.11 212.11 0 01104.23 1.76 3.91 3.91 0 01-1 7.69z"></path><path d="M356.37,426.68c-5.59,0-12.43-1.56-20.54-6.05-3.87,1.92-12,5-18.62.71s-8.9-14.19-6.75-30.12a4.86,4.86,0,0,1,.11-.55l1.91-6.69a48.4,48.4,0,0,1-6.83-34.71c3.89-20.73,19.61-25,21.64-25.46s21.94-5.76,37.59,4.8c9.81,6.62,15.65,17.82,17.38,33.31,3.38,5.12,18.9,30.77,8.27,55.56a3.87,3.87,0,0,1-.65,1c-.23.26-5.5,6.08-16.55,2A25.41,25.41,0,0,1,356.37,426.68Zm-20.5-14.44a3.9,3.9,0,0,1,2,.55c22.09,13.16,31.28,1,31.37.85a3.92,3.92,0,0,1,4.83-1.24c5.73,2.7,8.63,1.7,9.63,1.12,9.06-22.81-8.26-47.7-8.43-48a3.85,3.85,0,0,1-.7-1.87c-1.34-13.58-6.08-23.2-14.08-28.6-13.14-8.87-31-3.78-31.15-3.73l-.31.08c-.59.13-12.64,3-15.7,19.28a40.8,40.8,0,0,0,6.51,30.15,4,4,0,0,1,.67,3.47l-2.34,8.2c-2.14,16.1,1.13,20.84,3.28,22.23,3.7,2.39,10.32-.68,12.35-1.94A3.93,3.93,0,0,1,335.87,412.24Zm-7.62-84.63h0Z"></path><path d="M372.42 419.85h-.14a3.92 3.92 0 01-3.77-4.05c0-.1.31-10.23-3.57-16.24a3.91 3.91 0 116.57-4.24c5.23 8.1 4.83 20.25 4.82 20.77A3.91 3.91 0 01372.42 419.85zM335.87 420.06a3.9 3.9 0 01-3.9-3.78c-.06-1.59-.32-15.74 7.21-21.88a3.92 3.92 0 014.95 6.07c-3.85 3.13-4.44 12.51-4.35 15.55a3.91 3.91 0 01-3.78 4zM164.44 426.68a25.41 25.41 0 01-17-6.12c-11 4-16.32-1.78-16.55-2a3.64 3.64 0 01-.65-1c-10.63-24.79 4.89-50.44 8.27-55.56 1.73-15.49 7.57-26.69 17.38-33.31 15.65-10.56 35.56-5.36 37.59-4.8s17.75 4.73 21.64 25.46A48.4 48.4 0 01208.33 384l1.91 6.69c0 .18.08.36.11.55 2.15 15.93 0 25.79-6.75 30.12s-14.75 1.21-18.62-.71C176.87 425.12 170 426.68 164.44 426.68zM148.39 412a3.92 3.92 0 013.17 1.61c.36.47 9.59 12.12 31.37-.85a3.92 3.92 0 014.07 0c2 1.25 8.71 4.3 12.36 1.93 2.14-1.39 5.4-6.13 3.27-22.22l-2.34-8.2a3.9 3.9 0 01.69-3.48 40.89 40.89 0 006.49-30.14c-3.07-16.36-15.19-19.17-15.71-19.28l-.29-.08c-.19-.05-18.14-5.1-31.2 3.76-8 5.4-12.7 15-14 28.57a3.85 3.85 0 01-.7 1.87c-.18.26-17.51 25.18-8.41 48 .88.5 3.78 1.59 9.61-1.16A3.89 3.89 0 01148.39 412z"></path><path d="M148.39 419.85a3.91 3.91 0 01-3.91-3.76c0-.52-.41-12.67 4.82-20.77a3.91 3.91 0 116.57 4.24c-3.88 6-3.57 16.14-3.57 16.24a3.92 3.92 0 01-3.77 4.05zM184.94 420.06h-.13a3.91 3.91 0 01-3.78-4c.09-3-.5-12.42-4.35-15.55a3.92 3.92 0 014.95-6.07c7.53 6.14 7.27 20.29 7.21 21.88A3.9 3.9 0 01184.94 420.06zM390.27 401.35a3.92 3.92 0 01-1.8-7.39 93.93 93.93 0 0143.38-8.8 3.91 3.91 0 11-.36 7.82 86.69 86.69 0 00-39.44 7.94A3.92 3.92 0 01390.27 401.35zM313.62 404.05a4 4 0 01-1.53-.31c-.23-.1-23-9.67-42.54-6.66a3.92 3.92 0 01-1.19-7.74c21.75-3.35 45.79 6.77 46.8 7.2a3.91 3.91 0 01-1.54 7.51zM320 460.85a3.74 3.74 0 01-1.19-.18 3.91 3.91 0 01-2.54-4.92c8.16-25.56 30.7-36.06 31.66-36.49a3.91 3.91 0 013.25 7.12h0c-.21.09-20.38 9.59-27.46 31.75A3.9 3.9 0 01320 460.85zM411 449.28a3.91 3.91 0 01-3.72-2.7c-6.28-19.29-26.83-24.66-27-24.71a3.91 3.91 0 011.9-7.59c1 .26 25 6.52 32.58 29.88a3.91 3.91 0 01-3.72 5.12zM207.19 404.05a3.91 3.91 0 01-1.93-7.31 42.13 42.13 0 0124.93-4.25 3.91 3.91 0 01-1.16 7.74 33.81 33.81 0 00-19.91 3.31A3.85 3.85 0 01207.19 404.05zM130.55 404.05a3.91 3.91 0 01-2.77-1.14c-.21-.21-10.58-10.22-30.78-13.26a3.91 3.91 0 111.17-7.74c23 3.47 34.67 15 35.16 15.48a3.91 3.91 0 01-2.78 6.66zM144.09 455.7a4.25 4.25 0 01-.71-.06 3.91 3.91 0 01-3.14-4.55c3.54-19.53 18.31-31 18.94-31.53a3.91 3.91 0 114.76 6.2c-.22.17-13 10.3-16 26.73A3.91 3.91 0 01144.09 455.7z"></path></svg>