<svg width="48" height="48" viewBox="0 0 48 48" fill="none" xmlns="http://www.w3.org/2000/svg">
<path fill-rule="evenodd" clip-rule="evenodd" d="M19.3553 0.857422C15.9953 0.857422 12.7107 0.977422 9.51525 1.20028C5.27754 1.50885 1.84554 4.70771 1.64325 8.81171C1.39309 13.8707 1.26848 18.9351 1.26954 24.0003C1.26954 29.2117 1.39982 34.2894 1.64325 39.1889C1.84897 43.2963 5.27754 46.4951 9.51525 46.8003C16.0681 47.266 22.6458 47.266 29.1987 46.8003C33.4364 46.4951 36.8684 43.2963 37.0707 39.1889C37.0878 38.846 36.7964 38.5717 36.4535 38.5717C35.6648 38.5735 34.8834 38.4196 34.1543 38.1188C33.4251 37.818 32.7625 37.3762 32.2044 36.8188C31.6464 36.2614 31.2039 35.5993 30.9022 34.8705C30.6006 34.1417 30.4458 33.3605 30.4467 32.5717C30.4467 32.2307 30.3112 31.9037 30.0701 31.6626C29.829 31.4215 29.502 31.286 29.161 31.286H18.4947C16.5624 31.286 14.7092 30.5184 13.3429 29.1521C11.9766 27.7857 11.209 25.9326 11.209 24.0003C11.209 22.068 11.9766 20.2148 13.3429 18.8485C14.7092 17.4822 16.5624 16.7146 18.4947 16.7146H29.161C29.502 16.7146 29.829 16.5791 30.0701 16.338C30.3112 16.0969 30.4467 15.7698 30.4467 15.4289C30.4467 14.6403 30.6021 13.8596 30.9041 13.1312C31.206 12.4028 31.6486 11.741 32.2065 11.1838C32.7643 10.6265 33.4266 10.1847 34.1553 9.8836C34.8841 9.58248 35.665 9.42795 36.4535 9.42885C36.7964 9.42885 37.0878 9.15456 37.0707 8.81171C36.865 4.70771 33.4364 1.50885 29.1987 1.20028C26.0033 0.977422 22.7118 0.857422 19.3553 0.857422ZM35.7095 34.1214C35.4168 33.982 35.1695 33.7624 34.9966 33.488C34.8236 33.2137 34.732 32.896 34.7324 32.5717V27.4289H18.4913C17.5819 27.4289 16.7099 27.0676 16.0669 26.4246C15.4239 25.7817 15.0627 24.9096 15.0627 24.0003C15.0627 23.091 15.4239 22.2189 16.0669 21.5759C16.7099 20.9329 17.5819 20.5717 18.4913 20.5717H34.7324V15.4289C34.7322 15.1041 34.8242 14.786 34.9978 14.5115C35.1714 14.237 35.4193 14.0175 35.7128 13.8784C36.0063 13.7394 36.3333 13.6866 36.6556 13.7262C36.9779 13.7658 37.2824 13.8961 37.5335 14.102C41.3804 17.2563 43.3415 19.214 46.3484 22.9203C46.5962 23.2257 46.7314 23.607 46.7314 24.0003C46.7314 24.3936 46.5962 24.7749 46.3484 25.0803C43.3415 28.7831 41.377 30.7477 37.5335 33.8986C37.2823 34.1043 36.9779 34.2345 36.6556 34.274C36.3333 34.3134 36.0064 34.2605 35.713 34.1214H35.7095Z" fill="#6171A3"/>
</svg>
