<svg width="48" height="48" viewBox="0 0 48 48" fill="none" xmlns="http://www.w3.org/2000/svg">
<path d="M17.1429 41.9654L1.71436 46.2854L6.03436 30.8568L34.2858 2.74251C34.6051 2.41595 34.9864 2.15648 35.4074 1.97934C35.8284 1.80219 36.2805 1.71094 36.7372 1.71094C37.1939 1.71094 37.6461 1.80219 38.067 1.97934C38.488 2.15648 38.8693 2.41595 39.1886 2.74251L45.2572 8.84537C45.5782 9.16433 45.8329 9.54361 46.0067 9.96138C46.1805 10.3792 46.2699 10.8272 46.2699 11.2797C46.2699 11.7321 46.1805 12.1802 46.0067 12.5979C45.8329 13.0157 45.5782 13.395 45.2572 13.7139L17.1429 41.9654Z" stroke="white" stroke-width="3.42857" stroke-linecap="round" stroke-linejoin="round"/>
</svg>
