<svg width="120" height="120" viewBox="0 0 120 120" fill="none" xmlns="http://www.w3.org/2000/svg">
<g clip-path="url(#clip0_418_114)">
<path d="M116.344 100.444L84.2062 71.4C84.3375 71.025 84.4312 70.6312 84.4312 70.2C84.4312 69.2437 84.0562 68.3625 83.4 67.6688L78 62.2687C78.0187 62.2312 78.0562 62.175 78.075 62.1375C81.5625 55.9687 83.4 48.9187 83.4 41.7188C83.4 36.2062 82.35 30.825 80.25 25.7437C78.15 20.6812 75.1125 16.1437 71.1938 12.225C63.3188 4.33125 52.8562 0 41.7 0C30.5437 0 20.0813 4.33125 12.225 12.225C4.33125 20.0813 0 30.5437 0 41.7C0 52.8375 4.33125 63.3188 12.225 71.1938C20.1 79.0688 30.5625 83.4 41.7 83.4C48.9 83.4 55.9688 81.5625 62.1188 78.075C62.175 78.0562 62.2125 78.0187 62.2687 78L67.6688 83.4C68.3813 84.1125 69.2812 84.4312 70.2 84.4312C70.6125 84.4312 71.0063 84.3375 71.4 84.1875L100.463 116.325C102.544 118.613 105.413 119.906 108.525 119.981H108.75C111.75 119.981 114.581 118.8 116.7 116.681C118.894 114.487 120.056 111.581 120 108.488C119.925 105.413 118.631 102.544 116.344 100.444ZM82.3875 73.7438L114.356 102.619C116.025 104.175 116.981 106.275 117.037 108.563C117.094 110.831 116.231 112.969 114.619 114.6C113.044 116.156 111 117.019 108.881 117.019H108.581C106.294 116.962 104.194 116.006 102.675 114.337L73.7438 82.3875L82.3875 73.7438ZM41.7 2.98125C46.8562 2.98125 51.8437 3.975 56.5312 5.90625C61.2187 7.85625 65.4562 10.6875 69.0937 14.325C76.4062 21.6375 80.4375 31.35 80.4375 41.7C80.4375 52.0312 76.4062 61.7625 69.0937 69.0937C61.7625 76.4062 52.0312 80.4375 41.7 80.4375C31.35 80.4375 21.6375 76.4063 14.325 69.1125C7.0125 61.8 2.9625 52.0687 2.9625 41.7188C2.9625 31.3688 6.99375 21.6375 14.325 14.3438C21.6375 7.0125 31.35 2.98125 41.7 2.98125Z" fill="#6171A3"/>
<path d="M24.2999 70.4438H59.1187C60.1312 70.4438 61.0687 69.9938 61.6874 69.225C62.3249 68.4563 62.5687 67.4438 62.3624 66.45L59.7562 53.625C59.3812 51.7313 58.0312 50.175 56.2499 49.5563L49.4624 47.175L46.8937 45.3V44.7563C50.0249 43.0688 52.2937 39.8625 52.7624 36.1125H53.4562C55.0124 36.1125 56.3062 34.9125 56.4187 33.3563C56.4187 33.2813 56.4374 33.225 56.4374 33.1688C56.4374 33.15 56.4374 33.15 56.4374 33.1313C56.9437 22.0688 53.5499 15.45 46.4249 13.4625C43.5374 12.6563 40.3687 12.8063 37.2749 13.8938C29.4749 16.6125 26.0249 23.0438 26.9812 33.0563C26.9812 33.1125 26.9999 33.1688 26.9999 33.225C27.0374 34.8188 28.3499 36.1125 29.9624 36.1125H30.6562C31.1249 39.8625 33.3937 43.0688 36.5249 44.7563V45.3L33.9562 47.175L27.1874 49.5563C25.4062 50.175 24.0562 51.75 23.6812 53.625L21.0749 66.45C20.8687 67.425 21.1312 68.4375 21.7499 69.225C22.3499 69.9938 23.2874 70.4438 24.2999 70.4438ZM57.9374 54L60.5437 66.825C60.6374 67.2563 60.5249 67.7063 60.2437 68.0438C59.9624 68.3813 59.5499 68.5875 59.0999 68.5875H54.6374V64.8C54.6374 64.2938 54.2249 63.8625 53.6999 63.8625C53.1937 63.8625 52.7624 64.275 52.7624 64.8V68.5875H42.6562V52.3313L44.6999 54.4125C44.8687 54.6 45.1124 54.6938 45.3749 54.6938H45.4687C45.7499 54.6563 46.0124 54.5063 46.1624 54.2625L49.4062 49.125L55.6124 51.3C56.7937 51.7125 57.6937 52.7438 57.9374 54ZM32.3999 34.6688V31.1063V29.9438C32.3999 29.925 32.4562 29.2875 33.0187 28.8188C33.4874 28.4063 34.1812 28.2188 35.1374 28.2188C35.4374 28.2188 35.7562 28.2375 36.1124 28.275C40.8562 28.8 44.7374 27.825 47.1749 25.5188C48.3562 26.8125 49.6499 27.6563 51.0187 28.0875V31.1063V34.6688C51.0187 39.9188 46.8374 44.2125 41.7187 44.2125C40.3312 44.2125 38.9999 43.8938 37.8187 43.3125C34.6124 41.8125 32.3999 38.4938 32.3999 34.6688ZM41.6999 46.0688C42.7874 46.0688 43.8374 45.9 44.8312 45.5813L41.7562 48.75L38.5874 45.6188C39.5624 45.9 40.6312 46.0688 41.6999 46.0688ZM25.4624 54C25.7249 52.7438 26.6062 51.7125 27.7687 51.3L33.9749 49.125L37.2374 54.2625C37.3874 54.5063 37.6312 54.6563 37.9124 54.6938H38.0249C38.2687 54.6938 38.5124 54.6 38.6812 54.4313L40.8374 52.2938V68.6063H30.6187V64.8188C30.6187 64.3125 30.2062 63.8813 29.6812 63.8813C29.1562 63.8813 28.7437 64.2938 28.7437 64.8188V68.6063H24.2812C23.8312 68.6063 23.4187 68.4188 23.1374 68.0625C22.8562 67.7063 22.7437 67.275 22.8374 66.8438L25.4624 54Z" fill="#6171A3"/>
</g>
<defs>
<clipPath id="clip0_418_114">
<rect width="120" height="120" fill="white"/>
</clipPath>
</defs>
</svg>
