<svg xmlns="http://www.w3.org/2000/svg" data-name="Layer 3" viewBox="0 0 64 64" id="pet-sign"><path d="M54.289,1H9.711A8.72,8.72,0,0,0,1,9.711q0,.327.024.652L3.479,43.1A8.582,8.582,0,0,0,12,51H26.333l4.744,11.385a1,1,0,0,0,1.846,0L37.667,51H52A8.582,8.582,0,0,0,60.521,43.1l2.455-32.732Q63,10.038,63,9.711A8.72,8.72,0,0,0,54.289,1Zm6.692,9.212L58.526,42.944A6.573,6.573,0,0,1,52,49H37a1,1,0,0,0-.923.615L32,59.4l-4.077-9.785A1,1,0,0,0,27,49H12a6.573,6.573,0,0,1-6.526-6.056L3.019,10.212C3.006,10.045,3,9.878,3,9.711A6.719,6.719,0,0,1,9.711,3H54.289A6.719,6.719,0,0,1,61,9.711C61,9.878,60.994,10.045,60.981,10.212Z"></path><path d="M32,5A21,21,0,1,0,53,26,21.024,21.024,0,0,0,32,5Zm0,40A19,19,0,1,1,51,26,19.021,19.021,0,0,1,32,45Z"></path><path d="M24.4 22.534a3.667 3.667 0 006.6-2.2V18.676a12.386 12.386 0 00-1.3-5.516 3.907 3.907 0 00-6.259-1.014A4.883 4.883 0 0022 15.623a11.2 11.2 0 002.227 6.68zm.454-8.974a1.906 1.906 0 013.055.495A10.37 10.37 0 0129 18.676v1.657a1.667 1.667 0 01-3 1h0l-.174-.23A9.191 9.191 0 0124 15.623 2.94 2.94 0 0124.854 13.56zM36.667 24A3.686 3.686 0 0039.6 22.534l.173-.232A11.2 11.2 0 0042 15.623a4.883 4.883 0 00-1.439-3.477A3.907 3.907 0 0034.3 13.16 12.386 12.386 0 0033 18.676v1.657A3.671 3.671 0 0036.667 24zM35 18.676a10.37 10.37 0 011.091-4.621 1.906 1.906 0 013.055-.495A2.94 2.94 0 0140 15.623 9.186 9.186 0 0138.174 21.1L38 21.333h0a1.667 1.667 0 01-3-1zM26 27.054a5.459 5.459 0 00-2.433-4.544l-1.239-.826A4.07 4.07 0 0016 25.07v1.254a12.417 12.417 0 001.3 5.518A3.889 3.889 0 0020.8 34a3.938 3.938 0 002.828-1.21A8.059 8.059 0 0026 27.054zM20.8 32a1.9 1.9 0 01-1.7-1.053A10.4 10.4 0 0118 26.324V25.07a2.07 2.07 0 013.219-1.722l1.239.826A3.464 3.464 0 0124 27.054a6.129 6.129 0 01-1.855 4.387A1.893 1.893 0 0120.8 32zM41.672 21.684l-1.239.826A5.453 5.453 0 0038 27.054a8.115 8.115 0 002.441 5.8A3.906 3.906 0 0046.7 31.84 12.4 12.4 0 0048 26.324V25.07a4.07 4.07 0 00-6.328-3.386zM46 25.07v1.254a10.382 10.382 0 01-1.091 4.621 1.921 1.921 0 01-3.119.431A6.072 6.072 0 0140 27.054a3.457 3.457 0 011.542-2.88l1.239-.826A2.07 2.07 0 0146 25.07zM37.46 30.046a2.909 2.909 0 01-.763-1.378 4.842 4.842 0 00-9.409.058 2.847 2.847 0 01-.748 1.32l-.894.893A8.976 8.976 0 0023 37.329 3.674 3.674 0 0026.671 41a3.618 3.618 0 00.891-.11l2.711-.678a7.185 7.185 0 013.455 0l2.707.678A3.673 3.673 0 0041 37.329a8.976 8.976 0 00-2.646-6.39zM37.329 39a1.678 1.678 0 01-.406-.05l-2.71-.678a9.134 9.134 0 00-4.425 0l-2.715.678a1.622 1.622 0 01-.4.05A1.673 1.673 0 0125 37.329a6.984 6.984 0 012.061-4.975l.893-.894a4.9 4.9 0 001.288-2.308 2.843 2.843 0 015.53.058 4.845 4.845 0 001.274 2.25l.893.894A6.984 6.984 0 0139 37.329 1.673 1.673 0 0137.329 39z"></path></svg>