<svg width="121" height="120" viewBox="0 0 121 120" fill="none" xmlns="http://www.w3.org/2000/svg">
<path d="M106.681 23.5687C101.414 18.3475 94.2977 15.4181 86.8812 15.4181C79.4647 15.4181 72.3484 18.3475 67.0812 23.5687L60.5 30.1499L53.9187 23.5687C51.3345 20.892 48.2429 18.7569 44.8244 17.2881C41.406 15.8193 37.7292 15.0462 34.0087 15.014C30.2882 14.9817 26.5986 15.691 23.1552 17.1003C19.7118 18.5096 16.5837 20.5908 13.9534 23.2223C11.3231 25.8538 9.24346 28.9829 7.83577 32.427C6.42807 35.871 5.72058 39.561 5.75459 43.2815C5.7886 47.002 6.56343 50.6784 8.03384 54.0961C9.50425 57.5139 11.6408 60.6045 14.3187 63.1874L59.1687 108.037C59.3424 108.215 59.5495 108.356 59.778 108.452C60.0065 108.549 60.2519 108.599 60.5 108.6C60.748 108.599 60.9935 108.549 61.222 108.452C61.4505 108.356 61.6576 108.215 61.8312 108.037L106.681 63.1874C111.908 57.9195 114.841 50.7991 114.841 43.3781C114.841 35.957 111.908 28.8367 106.681 23.5687ZM63.8187 43.5187C66.9875 32.7937 76.9437 37.2562 74.0937 47.7749C70.925 58.4999 60.9312 54.0562 63.8187 43.5187ZM49.5687 37.7249C57.4062 34.7624 60.4437 51.1874 54.6312 53.5687C46.775 56.5312 43.7562 40.1062 49.5687 37.7249ZM41.8437 63.5812C34.7937 63.6749 30.3125 50.4562 38.3187 48.8624C46.0062 47.7562 50.9562 62.9249 41.8437 63.5812ZM60.5937 78.2625C54.9687 78.45 44.9187 76.3874 45.2187 70.9874C45.9687 51.2624 75.2187 51.2624 75.95 70.9874C75.8937 76.3687 67.625 78.2625 60.5 78.2625H60.5937ZM84.0875 61.3874C76.1375 68.4749 70.6437 57.6374 77.1687 51.1687C79.8687 48.3374 84.2562 47.9062 86.2437 51.3562C87.7625 54.0937 86.75 58.4999 84.0312 61.3124L84.0875 61.3874Z" fill="#6171A3"/>
</svg>
