<svg width="121" height="120" viewBox="0 0 121 120" fill="none" xmlns="http://www.w3.org/2000/svg">
<path d="M69.875 90H17.375V33.75H51.125V30H17.375V24.375C17.375 22.8832 17.9676 21.4524 19.0225 20.3975C20.0774 19.3426 21.5082 18.75 23 18.75H51.2375V15H23C20.5136 15 18.129 15.9877 16.3709 17.7459C14.6127 19.504 13.625 21.8886 13.625 24.375V103.125C13.625 105.611 14.6127 107.996 16.3709 109.754C18.129 111.512 20.5136 112.5 23 112.5H64.25C66.7364 112.5 69.121 111.512 70.8791 109.754C72.6373 107.996 73.625 105.611 73.625 103.125V73.0125H69.875V90ZM64.25 108.75H23C21.5082 108.75 20.0774 108.157 19.0225 107.102C17.9676 106.048 17.375 104.617 17.375 103.125V93.75H69.875V103.125C69.875 104.617 69.2824 106.048 68.2275 107.102C67.1726 108.157 65.7418 108.75 64.25 108.75ZM38 26.25V22.5H51.125V26.25H38ZM43.625 95.625C42.5125 95.625 41.4249 95.9549 40.4999 96.573C39.5749 97.1911 38.8539 98.0696 38.4282 99.0974C38.0024 100.125 37.891 101.256 38.1081 102.347C38.3251 103.439 38.8609 104.441 39.6475 105.227C40.4342 106.014 41.4365 106.55 42.5276 106.767C43.6188 106.984 44.7498 106.873 45.7776 106.447C46.8054 106.021 47.6839 105.3 48.302 104.375C48.9201 103.45 49.25 102.363 49.25 101.25C49.25 99.7582 48.6574 98.3274 47.6025 97.2725C46.5476 96.2176 45.1168 95.625 43.625 95.625ZM43.625 103.125C43.2542 103.125 42.8916 103.015 42.5833 102.809C42.275 102.603 42.0346 102.31 41.8927 101.968C41.7508 101.625 41.7137 101.248 41.786 100.884C41.8584 100.52 42.0369 100.186 42.2992 99.9242C42.5614 99.6619 42.8955 99.4834 43.2592 99.411C43.6229 99.3387 43.9999 99.3758 44.3425 99.5177C44.6851 99.6596 44.978 99.9 45.184 100.208C45.39 100.517 45.5 100.879 45.5 101.25C45.5 101.747 45.3025 102.224 44.9508 102.576C44.5992 102.927 44.1223 103.125 43.625 103.125ZM101.75 7.5H60.5C59.0082 7.5 57.5774 8.09263 56.5225 9.14752C55.4676 10.2024 54.875 11.6332 54.875 13.125V63.75C54.875 65.2418 55.4676 66.6726 56.5225 67.7275C57.5774 68.7824 59.0082 69.375 60.5 69.375H101.75C103.242 69.375 104.673 68.7824 105.727 67.7275C106.782 66.6726 107.375 65.2418 107.375 63.75V13.125C107.375 11.6332 106.782 10.2024 105.727 9.14752C104.673 8.09263 103.242 7.5 101.75 7.5ZM103.625 63.75C103.625 64.2473 103.427 64.7242 103.076 65.0758C102.724 65.4275 102.247 65.625 101.75 65.625H60.5C60.0027 65.625 59.5258 65.4275 59.1742 65.0758C58.8225 64.7242 58.625 64.2473 58.625 63.75V13.125C58.625 12.6277 58.8225 12.1508 59.1742 11.7992C59.5258 11.4475 60.0027 11.25 60.5 11.25H101.75C102.247 11.25 102.724 11.4475 103.076 11.7992C103.427 12.1508 103.625 12.6277 103.625 13.125V63.75ZM79.25 18.75H68C67.5027 18.75 67.0258 18.9475 66.6742 19.2992C66.3225 19.6508 66.125 20.1277 66.125 20.625V31.875C66.125 32.3723 66.3225 32.8492 66.6742 33.2008C67.0258 33.5525 67.5027 33.75 68 33.75H79.25C79.7473 33.75 80.2242 33.5525 80.5758 33.2008C80.9275 32.8492 81.125 32.3723 81.125 31.875V20.625C81.125 20.1277 80.9275 19.6508 80.5758 19.2992C80.2242 18.9475 79.7473 18.75 79.25 18.75ZM77.375 30H69.875V22.5H77.375V30ZM84.875 18.75H96.125V22.5H84.875V18.75ZM84.875 30H96.125V33.75H84.875V30ZM79.25 41.25H68C67.5027 41.25 67.0258 41.4475 66.6742 41.7992C66.3225 42.1508 66.125 42.6277 66.125 43.125V54.375C66.125 54.8723 66.3225 55.3492 66.6742 55.7008C67.0258 56.0525 67.5027 56.25 68 56.25H79.25C79.7473 56.25 80.2242 56.0525 80.5758 55.7008C80.9275 55.3492 81.125 54.8723 81.125 54.375V43.125C81.125 42.6277 80.9275 42.1508 80.5758 41.7992C80.2242 41.4475 79.7473 41.25 79.25 41.25ZM77.375 52.5H69.875V45H77.375V52.5ZM84.875 41.25H96.125V45H84.875V41.25ZM84.875 52.5H96.125V56.25H84.875V52.5Z" fill="#6171A3"/>
</svg>
