<svg width="126" height="126" viewBox="0 0 126 126" fill="none" xmlns="http://www.w3.org/2000/svg">
<path d="M51.23 84.8566C61.104 84.8566 70.5735 80.8606 77.5555 73.7477C84.5375 66.6347 88.4599 56.9875 88.4599 46.9283C88.4599 36.8691 84.5375 27.2219 77.5555 20.1089C70.5735 12.996 61.104 9 51.23 9C41.356 9 31.8864 12.996 24.9044 20.1089C17.9224 27.2219 14 36.8691 14 46.9283C14 56.9875 17.9224 66.6347 24.9044 73.7477C31.8864 80.8606 41.356 84.8566 51.23 84.8566Z" stroke="white" stroke-width="7.43" stroke-linecap="round" stroke-linejoin="round"/>
<path d="M111 108L78 75" stroke="white" stroke-width="7.43" stroke-linecap="round" stroke-linejoin="round"/>
<path fill-rule="evenodd" clip-rule="evenodd" d="M43.9125 26.7168C42.2188 26.7168 40.8062 27.6219 39.8771 28.8459C38.9111 30.1632 38.3996 31.7589 38.4199 33.3922C38.4199 35.1065 38.9445 36.7179 39.8771 37.9419C40.8062 39.1659 42.2188 40.0677 43.9125 40.0677C45.6028 40.0677 47.0154 39.1659 47.9479 37.9419C48.9138 36.6233 49.4252 35.0266 49.4051 33.3922C49.4051 31.6814 48.8771 30.0665 47.9479 28.8459C47.0154 27.6219 45.6028 26.7168 43.9125 26.7168ZM58.0862 26.7168C56.396 26.7168 54.9834 27.6219 54.0508 28.8459C53.0848 30.1632 52.5733 31.7589 52.5937 33.3922C52.5937 35.1065 53.1217 36.7179 54.0508 37.9419C54.9834 39.1659 56.396 40.0677 58.0862 40.0677C59.78 40.0677 61.1925 39.1659 62.1251 37.9419C63.0909 36.6233 63.6023 35.0266 63.5822 33.3922C63.5822 31.6814 63.0542 30.0665 62.1251 28.8459C61.1925 27.6219 59.78 26.7168 58.0862 26.7168ZM68.324 39.3168C64.8474 39.3168 62.6394 42.6837 62.6394 45.9922C62.6394 49.3042 64.8474 52.6711 68.324 52.6711C71.8005 52.6711 74.0085 49.3042 74.0085 45.9922C74.0085 42.6837 71.8005 39.3168 68.324 39.3168ZM33.6748 39.3168C30.1982 39.3168 27.9902 42.6802 27.9902 45.9922C27.9902 49.3042 30.1982 52.6711 33.6748 52.6711C37.1514 52.6711 39.3594 49.3042 39.3594 45.9922C39.3594 42.6837 37.1514 39.3168 33.6748 39.3168ZM50.9994 45.6597C47.0017 45.6597 44.0462 47.8025 42.1571 50.4597C40.2954 53.0722 39.3594 56.3157 39.3594 58.9522C39.3594 62.0379 41.2142 64.1808 43.4771 65.4665C45.7057 66.7282 48.4999 67.2837 50.9994 67.2837C53.5022 67.2837 56.2897 66.7282 58.5182 65.4665C60.7811 64.1808 62.6394 62.0379 62.6394 58.9522C62.6394 56.3157 61.7034 53.0722 59.8382 50.4562C57.9525 47.8025 54.9971 45.6562 50.9994 45.6562V45.6597Z" fill="white"/>
</svg>
