<svg width="73" height="73" viewBox="0 0 73 73" fill="none" xmlns="http://www.w3.org/2000/svg">
<path d="M36.4988 41.732C39.967 41.732 43.2932 40.3542 45.7456 37.9018C48.198 35.4494 49.5757 32.1233 49.5757 28.655C49.5757 25.1868 48.198 21.8607 45.7456 19.4083C43.2932 16.9559 39.967 15.5781 36.4988 15.5781C33.0306 15.5781 29.7044 16.9559 27.252 19.4083C24.7996 21.8607 23.4219 25.1868 23.4219 28.655C23.4219 32.1233 24.7996 35.4494 27.252 37.9018C29.7044 40.3542 33.0306 41.732 36.4988 41.732Z" stroke="#6171A3" stroke-width="3.42857" stroke-linecap="round" stroke-linejoin="round"/>
<path d="M14.165 62.1307C16.4992 58.2992 19.7798 55.1327 23.6914 52.9354C27.6029 50.7381 32.014 49.584 36.5004 49.584C40.9869 49.584 45.3979 50.7381 49.3095 52.9354C53.2211 55.1327 56.5016 58.2992 58.8358 62.1307" stroke="#6171A3" stroke-width="3.42857" stroke-linecap="round" stroke-linejoin="round"/>
<path d="M36.5 70.5C45.5174 70.5 54.1654 66.9179 60.5416 60.5416C66.9179 54.1654 70.5 45.5174 70.5 36.5C70.5 27.4826 66.9179 18.8346 60.5416 12.4584C54.1654 6.08213 45.5174 2.5 36.5 2.5C27.4826 2.5 18.8346 6.08213 12.4584 12.4584C6.08213 18.8346 2.5 27.4826 2.5 36.5C2.5 45.5174 6.08213 54.1654 12.4584 60.5416C18.8346 66.9179 27.4826 70.5 36.5 70.5Z" stroke="#6171A3" stroke-width="3.42857" stroke-linecap="round" stroke-linejoin="round"/>
</svg>
